<?xml version="1.0" encoding="utf-8"?>
<!-- Generator: Adobe Illustrator 24.2.3, SVG Export Plug-In . SVG Version: 6.00 Build 0)  -->
<svg version="1.1" id="Layer_1" xmlns="http://www.w3.org/2000/svg" xmlns:xlink="http://www.w3.org/1999/xlink" x="0px" y="0px"
	 viewBox="0 0 512 512" style="enable-background:new 0 0 512 512;" xml:space="preserve">
<style type="text/css">
	.st0{fill:#221F20;}
</style>
<g>
	<g>
		<g>
			<path class="st0" d="M480.8,278.8c0,0.4-0.2,0.7-0.2,1.1c-0.4,1.3-1.1,2.2-2.2,3c-1.5,1.1-3.2,1.7-5.1,2.2
				c-3.2,0.7-6.4,0.9-9.7,0.6c-4.7-0.6-8.6-2.6-11.8-6.2c-2.4-2.8-4.1-5.8-5.2-9.4c-0.9-2.8-1.7-5.6-2.1-8.6c0-0.6-0.2-1.1-0.2-1.7
				l0,0c-0.2,0.6-0.4,1.3-0.4,1.9c-0.4,2.2-0.6,4.5-0.7,6.7c-0.2,2.2-0.2,4.3-0.2,6.6c0,0.4-0.2,0.6-0.6,0.7
				c-1.5,0.7-3.2,1.3-5.1,1.1s-3-1.3-3-3.2c0-0.2,0-0.6,0-0.7c-0.2,0.2-0.2,0.2-0.2,0.2c-0.7,0.9-1.5,1.9-2.2,2.6
				c-2.2,1.9-4.7,1.1-6-0.4c-0.7-0.7-1.1-1.5-1.7-2.4v-0.2c-0.7,0.6-1.3,1.1-2.1,1.7c-1.5,1.1-3.4,2.1-5.2,2.2
				c-2.1,0.4-4.1,0-5.8-1.5c-0.7-0.7-1.3-1.5-1.7-2.4c-0.2,0-0.2,0.2-0.2,0.2c-2.2,1.5-4.5,2.8-7.1,3.4c-1.9,0.6-3.7,0.7-5.6,0.4
				c-1.5-0.2-2.8-0.7-3.6-2.1c-0.7-0.9-0.9-2.1-0.9-3c0-1.3,0.2-2.6,0.4-3.7c0.7-4.3,1.7-8.4,2.6-12.6c0,0,0,0,0-0.2
				c-0.2,0-0.2,0-0.4,0.2c-2.1,0.7-4.1,1.5-6.2,2.1c-0.6,0.2-0.9,0.2-1.5,0.2c-0.9,0-1.5-0.4-2.1-1.1c-0.7-0.9-1.3-1.9-1.7-3
				c-0.2-0.4-0.2-0.7-0.4-1.1c0-0.4,0-0.4,0.2-0.4c2.1-0.7,4.3-1.5,6.4-2.2c2.2-0.7,4.7-1.7,6.9-2.4c0.2,0,0.2-0.2,0.4-0.4
				c0.7-3.2,1.7-6.4,2.4-9.6c0.4-1.5,1.3-2.4,2.2-3.6c0.6-0.6,1.3-0.9,2.1-1.1c1.3-0.4,2.4-0.7,3.7-0.9c0.2,0,0.4,0,0.6,0
				c0.6,0,0.6,0.2,0.6,0.7c-0.4,1.7-0.7,3.2-1.1,4.9c-0.6,2.6-1.1,5.2-1.9,7.9v0.2c0.2,0,0.4,0,0.4,0c2.1-0.4,4.3-0.7,6.4-1.1
				c0.7-0.2,1.7-0.2,2.6,0h0.2c1.1,0.4,1.5,1.3,0.9,2.2c-0.9,1.3-1.9,2.6-3,3.9c-0.4,0.6-0.9,0.7-1.7,0.9c-2.4,0.6-5.1,1.1-7.5,1.7
				c-0.2,0-0.4,0.2-0.4,0.4c-0.9,4.1-2.1,8.1-3,12.2c-0.2,0.9-0.4,2.1-0.6,3c-0.2,0.7,0,1.3,0.2,2.1c0.4,1.1,1.3,1.5,2.4,1.1
				c1.1-0.2,2.1-0.7,3.2-1.3c0.9-0.6,2.1-1.1,3-1.9c0.2,0,0.2-0.2,0.2-0.4c0.2-2.8,0.7-5.6,2.1-8.2c1.9-3.6,4.5-6.4,8.2-8.2
				c1.5-0.7,3-1.1,4.7-1.1c0.7,0,1.5,0.2,1.9,0.9c0.4,0.6,0.7,0.9,1.5,1.1c0.4,0,0.7,0,1.1,0c0.6,0,1.1,0,1.5,0
				c0.7,0,1.1,0.4,1.3,1.1c0.2,0.6,0.2,0.9,0.2,1.5c0,1.3-0.2,2.6-0.6,3.9c-0.4,1.9-0.7,3.9-1.1,5.8s-0.4,3.6,0,5.4
				c0,0.4,0.2,0.6,0.4,0.9c0.2,0.2,0.4,0.4,0.7,0.4c0.7,0,1.1-0.4,1.7-0.7c1.1-0.9,2.1-2.2,2.8-3.4c0.2-0.4,0.2-0.7,0.2-0.9
				c1.1-5.6,2.4-11.1,3.7-16.5c1.1-4.9,2.4-9.7,3.6-14.6c0.2-0.9,0.4-2.1,0.6-3l0.2-0.2c0.9-0.4,2.1-0.4,3.2-0.4
				c0.9,0,1.9,0.2,2.6,0.7c1.1,0.6,1.5,1.7,1.5,2.8c0,1.3-0.2,2.6-0.4,3.7c-0.6,2.8-1.5,5.6-2.4,8.4c-0.6,1.9-1.1,3.9-1.9,6
				c-0.2,0.4-0.2,0.7-0.2,1.3c0.4-0.2,0.7-0.4,1.1-0.7c1.9-1.1,3.4-2.4,5.1-3.9c2.4-2.2,4.7-4.7,6.9-7.1c0.2-0.2,0.4-0.4,0.7-0.2
				c0.7,0.2,1.7,0.4,2.4,0.9c0.6,0.4,1.1,0.9,1.3,1.7c0.2,0.7-0.2,1.3-0.6,1.9c-0.6,0.7-1.1,1.3-1.7,2.1c-1.9,1.9-3.7,3.6-5.8,5.1
				c-1.7,1.3-3.4,2.6-5.1,3.9c0,0-0.2,0.2-0.2,0.4c0.6,4.3,1.7,8.2,3.2,12.2c1.1,2.4,2.2,4.7,4.1,6.7c1.9,2.1,3.9,3.6,6.6,4.3
				c1.1,0.4,2.4,0.4,3.6,0.4c2.1,0,4.1-0.4,6.2-0.9c2.2-0.7,4.1-1.9,6-3.6c0.2-0.2,0.4-0.4,0.6-0.4c0.2-0.2,0.4,0,0.6,0.2
				c0,0.4,0.2,0.7,0.2,0.9C480.8,278,480.8,278.4,480.8,278.8z M424.4,255c-0.4,0-0.7,0.2-1.1,0.2c-0.9,0.4-1.7,0.9-2.4,1.7
				c-2.6,2.6-4.5,5.8-5.6,9.4c-0.4,0.9-0.6,2.1-0.4,3.2c0.2,0.9,0.6,1.5,1.3,1.9c0.6,0.2,1.1,0.2,1.7,0c1.5-0.2,2.4-1.1,3.4-2.2
				c0.9-1.3,1.5-2.8,1.9-4.3c0.9-3.2,1.1-6.4,1.1-9.6C424.4,255.2,424.4,255.2,424.4,255z"/>
			<path class="st0" d="M372.9,221.8c0.6,0,1.1,0,1.7,0.2c3.2,0.4,6.2,1.1,8.8,2.8c1.9,1.3,3.4,2.8,4.1,5.1c0.4,0.9,0.6,2.1,0.6,3
				c0,1.7-0.2,3.6-0.7,5.2c-1.1,2.6-3.2,4.3-6,4.9c-1.3,0.2-2.8,0.2-4.1-0.2c-0.7-0.2-1.3-0.6-1.7-1.3c-0.2-0.4-0.2-0.4,0.2-0.7
				c1.5-1.1,2.8-2.6,3.7-4.1c0.6-0.9,0.9-2.1,0.7-3.2c-0.2-1.9-1.1-3.4-2.4-4.5c-1.3-0.9-2.6-1.5-4.3-1.7c-1.9-0.2-3.6-0.2-5.4,0
				c-2.1,0.2-3.9,0.7-5.8,1.5c-3.9,1.9-6.2,4.9-6.9,9c-0.2,0.9-0.2,1.9-0.2,3c0,1.3,0.4,2.4,1.1,3.6s1.9,2.1,2.8,2.8
				c1.7,1.3,3.6,2.4,5.4,3.4c2.8,1.5,5.6,2.8,8.4,4.3c2.6,1.3,5.1,2.6,7.5,4.5c1.3,1.1,2.6,2.2,3.7,3.7c1.1,1.7,1.9,3.6,1.7,5.6
				c0,3-0.7,6-2.4,8.6c-1.3,2.2-3.2,4.1-5.2,5.6c-3,2.2-6.4,3.6-9.9,4.5c-2.8,0.7-5.8,1.1-8.8,1.3h-0.2c-0.7,0-1.5,0-2.2,0h-0.2
				c-0.7-0.2-1.5-0.2-2.2-0.4c-1.9-0.4-3.6-1.1-4.9-2.4c-1.9-1.7-2.8-3.9-3-6.6c-0.2-2.8,0.2-5.6,1.1-8.2c0.7-2.1,1.9-3.7,3.4-5.2
				c2.4-2.1,5.2-2.8,8.2-2.8c1.9,0,3.4,1.5,3.6,3.4c0,0.2,0,0.4-0.2,0.4c-2.2,0.7-4.3,2.1-6,3.9s-2.6,4.1-2.8,6.6
				c-0.2,2.2,0.7,3.7,2.6,4.9c1.1,0.6,2.2,0.7,3.4,0.7c0.9,0,1.9-0.2,2.8-0.4c2.8-0.6,5.6-1.5,8.1-3.2c3-1.9,4.9-4.5,5.6-8.1
				c0.2-0.9,0.4-2.1,0.2-3.2c-0.2-1.3-0.7-2.4-1.7-3.4c-1.3-1.3-2.6-2.2-4.3-3.2c-2.4-1.5-5.1-2.6-7.7-3.7c-2.8-1.3-5.6-2.6-8.2-4.3
				c-2.1-1.3-4.1-2.8-5.8-4.7c-1.3-1.5-2.2-3.4-2.6-5.4c-0.2-0.6-0.2-1.1-0.2-1.7s0-1.3,0-1.9v-0.2c0.2-0.9,0.2-1.9,0.4-2.8
				c0.6-2.8,1.5-5.2,3.4-7.5c1.9-2.4,4.5-3.9,7.3-5.1c3.4-1.3,7.1-1.9,10.7-2.2c0.6,0,1.1,0,1.7-0.2
				C370.8,221.8,371.8,221.8,372.9,221.8z"/>
			<path class="st0" d="M465.8,265.8c-0.2,1.1-0.2,2.2,0.2,3.2c0.6,1.3,1.5,2.1,2.8,2.1c2.6,0.4,5.1-0.4,7.1-2.1
				c0.6-0.4,1.1-0.9,1.5-1.5c0.2-0.2,0.2-0.2,0.4,0c0,0,0.2,0,0.2,0.2c0.7,0.6,1.3,1.3,1.7,2.2c0.2,0.7,0,1.3-0.4,1.9
				c-0.6,0.7-1.3,1.3-2.1,1.9c-2.1,1.3-4.1,2.2-6.6,2.6c-2.2,0.4-4.3,0.2-6.4-0.6c-2.6-0.9-4.3-2.8-5.2-5.4
				c-1.1-3.2-0.9-6.4,0.4-9.6c2.1-4.5,5.2-7.7,9.7-9.6c2.6-1.1,5.2-1.1,7.9-0.2c0.7,0.4,1.3,0.7,2.1,1.3c0.9,0.7,1.3,1.7,1.5,3
				c0.2,4.7-2.4,7.9-6,9.6c-2.4,1.1-5.1,1.5-7.9,1.3C466.4,265.8,466.2,265.8,465.8,265.8z M466.6,263.6c0.2,0,0.2,0,0.2,0
				c1.1,0,2.4-0.2,3.6-0.7c2.1-0.9,3.4-2.6,4.3-4.5c0.6-1.3,0.9-2.6,0.7-4.1c0-0.6-0.4-0.9-0.9-0.7h-0.2c-1.1,0.2-1.9,0.7-2.6,1.5
				c-2.1,1.9-3.6,4.3-4.5,6.9C466.8,262.5,466.8,263,466.6,263.6z"/>
		</g>
		<g>
			<path class="st0" d="M320.4,294.5c-0.4,0-0.6-0.4-0.6-0.6v-75.9c0-0.4,0.4-0.6,0.6-0.6c0.4,0,0.6,0.4,0.6,0.6v75.7
				C321,294.1,320.6,294.5,320.4,294.5z"/>
		</g>
		<g>
			<path id="F1_Team_1_" class="st0" d="M113.2,293.8v-17.1H124v3h-7.5v5.1h6v3h-6v6H113.2z M133.6,277.3v16.5h-3.4v-12.6l-3.6,2.2
				l-1.5-2.6l5.4-3.6C130.6,277.3,133.6,277.3,133.6,277.3z M137.1,278c0,0.6-0.4,0.9-0.9,0.9c-0.6,0-0.9-0.4-0.9-0.9
				s0.4-0.9,0.9-0.9C136.6,276.9,137.1,277.5,137.1,278z M135.3,278c0,0.4,0.4,0.7,0.7,0.7s0.7-0.4,0.7-0.7c0-0.4-0.4-0.7-0.7-0.7
				C135.6,277.1,135.3,277.5,135.3,278z M136,278.4h-0.2v-0.9c0,0,0.2,0,0.4,0s0.2,0,0.4,0l0.2,0.2c0,0.2,0,0.2-0.2,0.2l0,0
				c0.2,0,0.2,0.2,0.2,0.2c0,0.2,0,0.2,0,0.2h-0.2V278c0-0.2,0-0.2-0.2-0.2H136V278.4z M136,277.8L136,277.8c0.2,0,0.4,0,0.4-0.2
				c0,0,0-0.2-0.2-0.2H136C136,277.5,136,277.8,136,277.8z M144.8,279.9v-3h12.6v3h-4.5v13.9h-3.4v-13.9H144.8z M160,293.8v-17.1
				h11.1v3h-7.5v3.9h6v3h-6v4.1h7.5v3C171.1,293.8,160,293.8,160,293.8z M173.1,293.8l3.7-17.1h6.6l3.7,17.1h-3.4l-0.7-3h-5.8
				l-0.7,3C176.5,293.8,173.1,293.8,173.1,293.8z M179.7,279.7l-1.7,8.1h4.7l-1.7-8.1H179.7z M190.2,293.8v-17.1h5.8l3,12.4l3-12.4
				h5.8v17.1h-3.4v-13.1H204l-3.4,12.4h-3.4l-3.2-12.4h-0.4v13.1H190.2z"/>
			<path class="st0" d="M294,237.2h-2.2c0,0-0.2,0-0.2,0.2c0.2,2.2-2.1,4.1-5.2,5.1l0,0c-0.9-9.4-19.9-1.7-21.9,7.5l0,0
				c-8.6,4.3-12.6,0.9-12.9-0.4c0,0,12.2-3.6,12.7-9.4c0.2-4.9-16.3-1.1-19.3,9.6c-3.4,1.9-7.5,1.9-7.5,1.1
				c-0.2-1.7,5.2-6.2,6.4-8.8c1.1-3-2.1-2.8-2.1-2.8c-2.6,0.4-9.9,2.6-9.9,2.6c0.9-5.4-6.9-1.1-12.4,0c0.4-3.7-3-3-14.8,0.4
				c-0.9-9.4-20.1-1.7-22.1,7.5c-4.7,2.2-6.7,1.7-6.7,0.2c0.2-2.1,4.1-6.2,2.6-9c17.1-4.5,14.2-17.4,6-21l0,0
				c0.9-0.7,1.9-1.3,2.6-1.7c0,0,0.2-0.2-0.2-0.2h-3.2c-0.2,0-0.2,0-0.4,0.2c-0.4,0.2-0.9,0.6-1.3,0.9
				c-27.9-7.3-48.3,20.6-28.5,23.2l4.1-3.6c0.9-0.7,0.6-0.9-0.2-0.9c-1.9,0-3.2-0.4-3.9-0.9c-8.8-6.4,7.9-19.5,24.5-14.8
				c-10.1,7.7-22.1,32-33.4,24.7l0,0c-0.4-0.2-0.6,0-0.9,0.2c-2.1,2.2-5.6,5.1-5.6,5.1c-0.4,0.2-0.4,0.7,0,0.9
				c13.9,6.2,21.7-2.8,29.4-13.5c0.7,1.5,3,3.4,6.7,2.4c0,2.1-7.3,8.8-7.7,10.1c-1.7,5.2,10.3,2.2,15.7-0.2
				c3.6,7.7,18.7-0.2,21.4-7.1c7.3-2.4,6,0.2,5.4,1.1c-4.5,5.6-7.1,8.2-7.1,8.8c0,0.2,0.2,0.4,0.4,0.4h4.9c0.7,0,1.1-0.4,1.7-0.7
				c0.4-0.4,6.7-8.1,8.1-9.6c7.9-3.2,4.5,1.1,4.5,1.1c-4.5,5.4-7.1,8.2-7.1,8.8c0,0.2,0.2,0.4,0.4,0.4h4.9c0.7,0,1.1-0.4,1.7-0.7
				c0.4-0.4,7.1-8.4,8.1-9.7c7.5-2.6,4.3,1.1,3.9,1.5c-0.4,0.6-4.5,5.2-4.7,6c-0.7,3.7,3.4,4.5,16.1-0.6c3.7,7.5,17.8,0.6,19.3-0.2
				c0,0.2,0,0.4,0.2,0.6c3.6,7.7,18.7-0.2,21.4-7.1l0,0c7.5-2.1,8.6-7.3,8.6-7.5S294.2,237.2,294,237.2z M180.4,223.5
				c8.2,5.4,2.2,12.4-3.6,15c-1.1-1.3-3.6-3-7.1-1.7C173.1,232.1,176.5,227.2,180.4,223.5z M169.6,238.7c1.5-1.7,4.9-0.2,4.9,0.9
				C171.4,240.9,169.4,238.9,169.6,238.7z M201.8,243.4C201.8,243.4,201.8,243.5,201.8,243.4c-3.6,1.9-2.8,4.3-3.2,4.7
				c-4.5,3.9-7.7,3.7-8.6,2.6c-2.8-3.2,7.5-13.1,11.6-9.6C202,241.5,202,242.4,201.8,243.4z M259.7,240.2c0.6-0.2,0.7,0.2,0.6,0.7
				c-1.3,4.9-9.4,6.9-9.4,6.9S251.8,241.3,259.7,240.2z M283.5,243.5c-3.6,1.5-2.6,4.1-3.2,4.5c-4.5,3.9-7.7,3.7-8.6,2.6
				c-2.8-3.2,7.5-13.1,11.6-9.6C283.9,241.5,283.9,242.6,283.5,243.5z M137.7,246.5h-2.6c0,0-0.2,0-0.2,0.2
				c-1.1,2.1-4.9,4.5-8.6,5.4c-6.9,2.1-2.8-3.6-2.8-3.6c6.2-7.5,6.6-8.1,7.1-8.8c0.2-0.2-0.2-0.4-0.6-0.4h-4.5
				c-1.1,0-1.9,0.6-2.4,1.1l-0.2-0.2c-1.9-3-9.2-2.6-14.6,0.9c-3.7,2.4-6.2,5.6-6.9,8.2c-2.8,0-5.2-0.4-7.3-0.9l5.1-6.2
				c10.7-3,28.1-19.9,19.5-19.7c-7.3,0.9-17.1,8.6-29.6,23.2c-0.4-0.4-2.6-1.9-3.9-0.7c-0.7,0.6-0.6,1.9,0.4,2.8
				c-13.1,4.9-12.4,2.2-11.2,0.6c0.9-1.3,4.3-6.2,4.3-6.2c13.1-4.1,30.4-22.1,18.6-19.5c-5.1,1.1-15.4,7.5-30,24.9
				c-6.7,3.2-11.8,5.1-7.1-1.1c4.9-6.2,20.1-23.2,20.1-23.8c0-0.2-0.2-0.4-0.6-0.4h-6.2c-0.9,0-1.7,0.7-2.2,1.3
				c-3.6-2.2-8.2-1.5-8.2-1.5c-17.4,1.3-33,17.8-31.7,27.2c0.4,2.4,2.6,5.8,7.7,5.8c1.1,0,5.4-0.6,10.1-2.8c0,0-2.1,6,15.4-0.2
				c0,0.2-2.6,6.6,19.7-1.1c-0.2,0.4-7.9,8.8-11.8,12.7c-9,9.2-15.4,3.2-15.7,2.8h-0.2l-1.7,1.5c0,0-0.2,0.2,0,0.4
				c14.4,10.7,29.8-9.4,37.5-17.4c2.4,0.6,5.6,0.7,9.4,0.2c0,0.7,0.2,1.3,0.6,1.9c1.7,2.6,7.7,2.6,12.7,0c0,0,0.7,3.7,11.1,1.3
				c5.1-1.1,10.7-4.9,12.2-7.7C137.9,246.7,137.7,246.5,137.7,246.5z M114.7,225.9c2.1-1.3,2.1,1.5-0.9,4.7
				c-7.1,7.5-12.7,8.6-12.7,8.6S108.5,229.7,114.7,225.9z M94.8,225.9c2.1-1.3,2.1,1.5-0.9,4.7c-7.1,7.5-12.7,8.6-12.7,8.6
				S88.6,229.7,94.8,225.9z M43.6,250.3c-10.7-1.3-1.3-14.2,9-21c7.3-4.9,15-6.2,15.6-2.2c-0.2,1.1-0.9,2.6-2.8,4.7
				c-1.9,2.1-7.7,8.8-12.4,14.2C49.6,249.2,45.7,250.5,43.6,250.3z M120.8,243.4c-1.5,1.9-3.6,4.3-5.1,6.4c-3,2.1-6,2.6-7.1,1.3
				c-1.3-1.5,0.2-5.1,3.6-7.7c3.2-2.8,6.9-3.7,8.2-2.2C120.8,241.7,121,242.4,120.8,243.4z"/>
		</g>
	</g>
</g>
</svg>
