<?xml version="1.0" encoding="utf-8"?>
<!-- Generator: Adobe Illustrator 24.2.3, SVG Export Plug-In . SVG Version: 6.00 Build 0)  -->
<svg version="1.1"
	 id="svg54" inkscape:version="1.1 (c68e22c387, 2021-05-23)" sodipodi:docname="image (1).svg" xmlns:inkscape="http://www.inkscape.org/namespaces/inkscape" xmlns:sodipodi="http://sodipodi.sourceforge.net/DTD/sodipodi-0.dtd" xmlns:svg="http://www.w3.org/2000/svg"
	 xmlns="http://www.w3.org/2000/svg" xmlns:xlink="http://www.w3.org/1999/xlink" x="0px" y="0px" viewBox="0 0 1600 525.4"
	 style="enable-background:new 0 0 1600 525.4;" xml:space="preserve">
<style type="text/css">
	.st0{fill:#D0DB25;}
	.st1{fill:#01574E;}
</style>
<sodipodi:namedview  bordercolor="#666666" borderopacity="1.0" id="namedview56" inkscape:current-layer="svg54" inkscape:cx="38.174306" inkscape:cy="35.878107" inkscape:pagecheckerboard="false" inkscape:pageopacity="0" inkscape:pageshadow="2" inkscape:window-height="1017" inkscape:window-maximized="1" inkscape:window-width="1920" inkscape:window-x="-8" inkscape:window-y="-8" inkscape:zoom="1.7420094" pagecolor="#a73d3d" showgrid="false">
	</sodipodi:namedview>
<g>
	<path id="path2" class="st0" d="M815.4,261.6c0,68.4,0.5,174.3,3.1,263.8h0.6c2.6-89.5,3.1-200,3.1-268.2
		c0-25.2-0.1-153.2-3.1-257.1h-0.6C816.4,71.5,815.4,164.4,815.4,261.6z"/>
	<path id="path4" class="st0" d="M350.5,226.1c-90.9,0-231.5,0.5-350.5,3.1v0.6c119,2.6,265.8,3.1,356.5,3.1
		c33.5,0,203.6-0.1,341.7-3.1v-0.6C603,227.1,479.6,226.1,350.5,226.1"/>
	<path id="path6" class="st1" d="M659.5,29.6H401.4c-4.7,0-11.2-0.1-18.1,6.8c-6.5,6.5-4.6,13-15.4,13h-37.7
		c-10.8,0-8.8-6.5-15.4-13c-6.9-6.9-13.4-6.8-18.1-6.8H38.6c-8.8,0-12.7,7.9-8.5,14.9l4.7,7.8c2.5,4.3,5.8,4.9,8.2,5.4
		c2.2,0.4,3.6,0.7,5.3,3.7l4.1,7.2c3.2,5.8,7,6.5,9.7,7.1c2.2,0.4,4.2,0.6,7,5.6c3,5.4,7,12.2,16.4,15.1l96.4,28.1
		c10,3.3,12.6,6.9,15.6,11.2c1.5,2.2,6.3,10.2,19.3,13.8l91.7,24.8c8.6,2.3,14.6-0.9,18.8-4.7l16.6-15.8c4.3-4,6.1-4,10.4,0
		l16.6,15.8c4.2,3.7,10.2,7,18.8,4.7l91.7-24.8c13-3.5,17.8-11.5,19.3-13.8c3-4.3,5.5-7.9,15.5-11.2l96.5-28.1
		c9.4-2.8,13.4-9.6,16.4-15.1c2.7-5,4.7-5.2,7-5.6c2.8-0.5,6.6-1.2,9.7-7.1l4.1-7.2c1.7-3,3.1-3.3,5.3-3.7c2.4-0.5,5.7-1.1,8.2-5.4
		l4.7-7.8C672.3,37.5,668.4,29.6,659.5,29.6 M38.7,45.6l-2.8-4.7c-0.8-1.4-1.4-4.5,2.6-4.5h258.2c5.2,0,11.1-0.1,16.8,9.8
		c0.8,1.5,1.7,2.9,2.7,4.2H54.6C43.9,50.4,41.8,50.5,38.7,45.6 M206.2,55.7h285.7v44.8H206.2V55.7z M59.2,66.7
		c-2.4-2.4-4-7.5-6.2-10.4l148.1-0.6v6.5L75.8,69.5C66.1,70.1,62,69.6,59.2,66.7 M78.6,83.8C77.2,82,76,80.1,75,78.1
		c-0.5-0.9-1-1.8-1.6-2.6c1.8-0.1,2.1-0.1,5.5-0.4L201,67.5v7l-96.6,10.3C91.4,86.2,82.6,88.1,78.6,83.8 M111.7,96.9l-17.6-5.1
		c11.7-1.4,107-12,107-12v7.8l-61.9,9.9C132,98.6,123.3,100,111.7,96.9 M154.6,109.4l-19.6-5.7c1.9-0.3,3-0.4,5-0.8l61-10.2v8.4
		l-23,6.5C177.9,107.7,163.8,111.9,154.6,109.4 M183.8,117.9l-11.3-3.3c2.4-0.5,4.8-1,7.1-1.7l25-7.3h27.9l-25.8,12
		C198.5,120.9,191.2,119.9,183.8,117.9 M209.5,138.7c-3.1-2.1-4.7-4.5-6.5-7c-1.5-2.4-3.4-4.6-5.4-6.5c2.1-0.1,4.1-0.4,6.1-0.9
		c3.3-1,6.6-2.3,9.7-3.7l31.1-15.1h20.7l-40.6,28.8C218.2,138.5,213.2,140,209.5,138.7 M240.1,148.7l-19.9-5.4
		c2.6-1.1,5.1-2.4,7.5-4c2.1-1.4-0.3,0.3,46.9-33.7h17.3L260,138.2C254.4,143.9,248.3,150.3,240.1,148.7 M271.6,157.2l-18.7-5.1
		c5.1-3,9.6-8,11.4-9.8l35.4-36.7h15.6l-28.2,44C282.4,156.7,277,158.2,271.6,157.2 M304.4,166.1l-19.9-5.4c3.2-2.1,5.9-4.9,7.8-8.2
		l29.6-46.9h13.4c0,0-17.4,50.8-18.6,53.4C313.2,166.5,309.2,167,304.4,166.1 M375.4,164.5l-16.5-15.6c-6.9-6.5-12.8-6.5-19.7,0
		l-16.5,15.6c-1.1,1-2.4,1.9-3.8,2.6c3.1-3.7,4.8-9.1,6-12.6l16.4-48.9h15.6l16.4,48.9c1.2,3.6,3,8.8,6,12.6
		C377.8,166.4,376.6,165.5,375.4,164.5 M393.7,166.1c-4.8,0.9-8.8,0.4-12.3-7.1c-1.2-2.6-18.6-53.4-18.6-53.4h13.4l29.6,46.9
		c1.9,3.3,4.6,6.1,7.8,8.2L393.7,166.1z M426.6,157.2c-5.5,1-10.8-0.5-15.5-7.5l-28.2-44h15.6l35.4,36.7c1.8,1.9,6.3,6.8,11.4,9.8
		L426.6,157.2z M458,148.7c-8.1,1.6-14.2-4.8-19.8-10.5l-31.8-32.6h17.3c0,0,44.8,32.4,46.9,33.7c2.3,1.6,4.8,2.9,7.5,4L458,148.7z
		 M495.2,131.8c-1.8,2.5-3.4,4.8-6.5,7c-3.7,1.2-8.7-0.3-15-4.3c-1.8-1.1-40.7-28.8-40.7-28.8h20.7c0,0,23.9,11.8,31.1,15.1
		c4,1.9,9.1,4.2,15.8,4.6C498.5,127.2,496.7,129.4,495.2,131.8 M514.4,117.9c-7.3,2-14.7,2.9-22.9-0.3c-3-1.1-25.8-12-25.8-12h27.9
		l25,7.3c2.3,0.7,4.7,1.3,7.1,1.7L514.4,117.9 M543.6,109.4c-9.2,2.5-23.5-1.8-23.5-1.8l-23-6.5v-8.4l61,10.2c2.1,0.3,3.2,0.5,5,0.8
		L543.6,109.4 M586.5,96.9c-11.7,3.1-20.3,1.7-27.4,0.5l-62-9.9v-7.8l107,12L586.5,96.9 M623.1,78c-1,2-2.2,4-3.6,5.8
		c-4,4.4-12.9,2.4-25.9,1.1l-96.6-10.4v-7L619.3,75c3.4,0.2,3.7,0.3,5.5,0.4C624.2,76.2,623.6,77.1,623.1,78 M637.1,67.6
		c-4.7,3-10.1,2.1-26,1.2l-114-6.6v-6.5l148,0.6C642.1,60.5,641.3,64.9,637.1,67.6 M662.2,40.9l-2.8,4.7c-3.2,4.9-5.2,4.8-15.8,4.8
		H381.9c1-1.3,1.9-2.7,2.7-4.2c5.7-9.9,11.5-9.8,16.8-9.8h258.3C663.6,36.4,663.1,39.5,662.2,40.9 M370.6,91.5
		c-0.7-8.1-1.1-12.8-1.5-16.1c-2.9,5.1-5.6,10.3-8,15.7h-1.7c-4.3-8.9-4.9-9.9-6.1-12.2c-0.4-0.8-0.9-1.7-1.8-3.3
		c-0.4,3.2-1,9.5-1.5,15.9h-4.5c1.3-9.3,3.3-25.1,3.5-26.5h2.7c0,0,6.4,12.8,9.2,17.6c3.2-5.9,5.3-10.2,9.5-17.6h2.4
		c0.4,3.8,1.9,15.9,3.2,26.5H370.6z M452.2,65h-5.3v26.5h5.3V65z M436.5,91.5V68.9c2.6,0,5.3,0.2,7.9,0.6V65H423v4.5
		c2.7-0.3,5.5-0.5,8.2-0.5v22.5H436.5z M271.2,91.5V68.9c2.6,0,5.3,0.2,7.9,0.6V65h-21.3v4.5c2.7-0.3,5.5-0.5,8.2-0.5v22.5H271.2z
		 M332.4,91.5V65h-4.1v17.1L312.5,65h-2.9v26.5h4.2V73.6l16,17.9H332.4z M240.3,84v5.9c2.1,1.5,4.6,2.3,7.2,2.2
		c5.7,0,10.8-3.2,10.8-8.7c0-3-1.8-5.6-4.5-6.7c-3.3-1.5-5.5-1.9-6.9-3.1c-2.6-2.2-0.5-5.7,3.1-5.7c1.1,0,3.7,0.3,4.5,2.9h2V66
		c-2.1-1-4.3-1.6-6.6-1.7c-2.1,0-4.1,0.6-5.8,1.9c-4,3-5.2,9,0.6,12.4c3.6,2.2,8.5,1.9,8.6,5.8c0.1,2.9-2.7,4-4.8,4
		c-4.1,0-5.4-3.7-5.8-4.4L240.3,84z M240.2,91.5l-11.6-27h-2.2l-12,27h5c0.7-2.5,1.6-5,2.6-7.5h9.4c1.2,2.9,2.1,5.5,2.8,7.5H240.2z
		 M223.4,80.6c0.6-1.3,0.7-1.6,3.3-7.7c2.5,5.8,2.7,6.2,3.3,7.7H223.4z M306.2,78.3c0-9.3-6.9-14.1-13.7-14.1
		c-6.8,0-13.7,4.8-13.7,14.1s6.9,14.1,13.8,14.1S306.2,87.6,306.2,78.3 M292.5,88.9c-4.2,0-7.9-3.9-7.9-10.6c0-7,4-10.6,7.9-10.6
		s7.9,3.7,7.9,10.6C300.4,85.2,296.4,88.9,292.5,88.9z M404.2,91.5h5.2V80.6h1.3l8.8,10.9h6.5l-10-11.6c1.3-0.5,2.5-1.2,3.5-2.2
		c2.9-2.8,2.9-7.5,0-10.4c0,0,0,0,0,0c-1.5-1.5-3.3-2.4-7.9-2.4c0,0-6.1,0.1-7.6,0.2L404.2,91.5z M409.4,68.2
		c0.6-0.1,1.2-0.1,1.8-0.1c5.4,0,5.5,4,5.5,4.5c0,2.8-2.5,5.3-7.3,4.5V68.2z M402.9,91.5l-11.6-27h-2.2l-12,27h5
		c0.7-2.5,1.6-5,2.6-7.5h9.4c1.2,2.9,2.1,5.5,2.8,7.5H402.9z M386,80.6c0.6-1.3,0.7-1.6,3.3-7.7c2.5,5.8,2.7,6.2,3.3,7.7H386z
		 M480.4,91.5V65h-4.1v17.1L460.5,65h-2.9v26.5h4.2V73.6l16,17.9H480.4z"/>
	<path id="path8" class="st1" d="M300.8,452.9h-3.3l-20,45h7.7c1.2-4.3,2.7-8.5,4.4-12.6h16.4c2,4.9,3.5,9.3,4.7,12.6h9.6
		L300.8,452.9z M297.7,465.9c4.9,11.2,4.9,11.2,6.1,14.1h-12.1C292.9,477.1,292.9,477,297.7,465.9"/>
	<path id="path10" class="st1" d="M606.3,452.9H603l-20,45h7.7c1.2-4.3,2.7-8.5,4.4-12.6h16.4c2,4.9,3.5,9.3,4.7,12.6h9.6
		L606.3,452.9z M603.2,465.9c4.9,11.2,4.9,11.2,6.1,14.1h-12.1C598.4,477.1,598.4,477,603.2,465.9"/>
	<path id="path12" class="st1" d="M185.8,497.9c-1.2-14-2-22.4-2.6-27.9c-7.6,13.6-10.8,20.2-13.9,27.3h-2.6
		c-7.6-15.6-8.4-17.1-10.2-20.4c-0.8-1.4-1.6-3-3.5-6.6c-0.3,2.8-1.7,15.1-2.6,27.7h-6.9c2.2-15.8,5.6-42.5,5.8-44.1h4.1
		c0.6,1.2,1.2,2.4,1.8,3.6c5.1,10.1,9,18.1,13.9,26.3l0.1,0.1l0.1-0.1c2.2-4,4.2-7.7,6.1-11.3c3-5.6,6-11.4,10.1-18.6h3.7
		c0.2,1.4,2.7,23.2,5.2,44.1L185.8,497.9z"/>
	<path id="path14" class="st1" d="M670.9,497.9c-1.1-14-2-22.4-2.6-27.9c-7.6,13.6-10.8,20.2-13.9,27.3h-2.5
		c-7.6-15.6-8.4-17.1-10.2-20.4c-0.8-1.4-1.6-3-3.5-6.6c-0.3,2.8-1.7,15.1-2.6,27.7h-6.9c2.2-15.8,5.6-42.5,5.8-44.1h4.1l1.8,3.6
		c5.1,10.1,9,18.1,13.9,26.3l0.1,0.1l0.1-0.1c2.2-4,4.2-7.7,6.1-11.3c3-5.6,6-11.4,10.1-18.6h3.7c0.2,1.4,2.7,23.2,5.3,44.1
		L670.9,497.9z"/>
	<path id="path16" class="st1" d="M73.3,499.4c-5.9,0.1-11.6-2.1-15.9-6.1c-3.7-3.5-7-9.2-7-17.4s3.3-13.9,7-17.4
		c4.3-4,10-6.2,15.9-6.1c5.6,0,16.3,2.3,21,13.5c1.3,3.2,1.9,6.6,1.9,10c0,8.2-3.3,13.9-7,17.4C84.9,497.3,79.2,499.5,73.3,499.4
		 M73.3,494.1c6.8,0,13.7-6.3,13.7-18.3c0-12-6.9-18.3-13.7-18.3c-6.8,0-13.7,6.3-13.7,18.3C59.6,487.8,66.5,494.1,73.3,494.1
		L73.3,494.1z"/>
	<path id="path18" class="st1" d="M364.6,499.4c-5.9,0.1-11.6-2.1-15.9-6.1c-3.7-3.5-7-9.2-7-17.4s3.2-13.9,7-17.4
		c4.3-4,10-6.2,15.9-6.1c5.6,0,16.3,2.3,21,13.5c1.3,3.2,1.9,6.6,1.9,10c0,8.2-3.2,13.9-7,17.4C376.2,497.3,370.5,499.5,364.6,499.4
		 M364.6,494.1c6.8,0,13.8-6.3,13.8-18.3c0-12-6.9-18.3-13.8-18.3c-6.8,0-13.7,6.3-13.7,18.3C350.9,487.8,357.8,494.1,364.6,494.1z"
		/>
	<path id="path20" class="st1" d="M104.1,453.7c2.4-0.1,12.4-0.3,12.5-0.3c7.5,0,10.5,1.5,13,4c2.4,2.3,3.6,5.5,3.5,8.8
		c-0.1,3.1-1.4,6.1-3.6,8.3c-1.8,1.7-3.9,3-6.2,3.8l16.6,19.5h-10.1L115,479.5h-2.7v18.4h-8.2L104.1,453.7z M115.6,458.3
		c-1.1,0-2.2,0.1-3.3,0.3h-0.1v15.6h0.1c1.1,0.2,2.2,0.3,3.4,0.3c6.6,0,9.6-4.2,9.6-8.2c0-2-0.8-4-2.2-5.4
		C121.4,459.2,118.8,458.3,115.6,458.3"/>
	<path id="path22" class="st1" d="M249.3,497.9v-44.1h8.2V492h18.2l0,5.8H249.3z"/>
	<path id="path24" class="st1" d="M477.2,455.5h-3.4v-1.8h9v1.8h-3.4v9.7h-2.2V455.5z"/>
	<path id="path26" class="st1" d="M494.5,460.6c-0.1-1.5-0.2-3.3-0.1-4.8h-0.1c-0.4,1.4-0.9,3-1.4,4.4l-1.7,5h-1.7l-1.6-4.9
		c-0.5-1.5-0.9-3-1.2-4.5c0,1.5-0.1,3.3-0.2,4.9l-0.3,4.7h-2l0.8-11.5h2.9l1.5,4.7c0.4,1.3,0.8,2.7,1.1,4h0.1c0.3-1.2,0.7-2.7,1.2-4
		l1.6-4.6h2.9l0.7,11.5h-2.1L494.5,460.6z"/>
	<path id="path28" class="st1" d="M429.4,497.9c-1.9-2.3-15-16.8-27.6-30.7v30.7h-6.4v-44.1h4.5l27.1,29.4v-29.4h6.3v44.1H429.4z"/>
	<path id="path30" class="st1" d="M525.8,497.9v-38.1c-4.7,0-9.3,0.3-13.9,0.9v-6.8h35.4v6.9c-4.4-0.6-8.9-0.9-13.3-0.9v38.1
		L525.8,497.9z"/>
	<path id="path32" class="st1" d="M451.5,492v-14.2h15.7v-5.4h-15.7v-13c3.7,0,9,0,18,0.5v-6.2h-26.1v44.1h26.9v-6.4
		C464.2,491.7,457.4,492,451.5,492"/>
	<path id="path34" class="st1" d="M561.2,492v-14.2H577v-5.4h-15.8v-13c3.7,0,9,0,18,0.5v-6.2H553v44.1h26.9v-6.4
		C574,491.7,567.1,492,561.2,492"/>
	<path id="path36" class="st1" d="M232.3,453.8c0.3,17,0.2,23.7,0.2,23.7c0,5.5-0.3,15.4-11,15.4c-3.8,0-11.3-0.6-11.3-13.2
		c0-11.4,0.3-25.4,0.3-25.9h-8.6v25.9c0,18.1,14.6,18.8,18.2,18.8c10.4,0,18.6-4.8,18.8-19.2l0.1-25.5L232.3,453.8z"/>
	<path id="path38" class="st1" d="M45.3,460.1v-6.3H18.5v44.1h8.2v-19h16.6v-5.8H26.7v-13.7C34.9,459.4,39.7,459.7,45.3,460.1"/>
	<path id="path40" class="st1" d="M695.8,279.2c0,4.8-3.9,8.7-8.7,8.7c-4.8,0-8.7-3.9-8.7-8.7c0-4.8,3.9-8.7,8.7-8.7
		C691.9,270.5,695.7,274.4,695.8,279.2 M694.6,279.2c0-4.1-3.4-7.4-7.5-7.4c-4.1,0-7.4,3.4-7.4,7.5c0,4.1,3.4,7.4,7.5,7.4
		C691.3,286.7,694.6,283.3,694.6,279.2 M688.7,279.9l2.6,4h-2l-2.4-3.8h-1.4v3.8h-1.7v-9.6h3.6c1.6,0,2.9,1.3,3,2.9c0,0,0,0,0,0
		C690.5,278.4,689.8,279.5,688.7,279.9 M685.5,278.7h1.8c0.8,0,1.4-0.6,1.5-1.3c0,0,0,0,0,0c0-0.8-0.6-1.4-1.4-1.3c0,0,0,0-0.1,0
		h-1.8V278.7z M370.7,298.7h13v78.2h-13V298.7z M323,296.9c-8.3,0-16.4,2.9-22.8,8.2v-6.4h-13v78.2h13v-44.1
		c0-12.6,10.2-22.8,22.8-22.8c12.6,0,22.8,10.2,22.8,22.8c0,0,0,0,0,0v44.1h13v-44.1C358.8,313,342.8,296.9,323,296.9 M261.1,298.6
		h13v75.3c0,22.5-19.7,40.8-40.8,40.8c-19.5,0-33.8-11.9-38.9-28.3h14c4.3,9.1,12.8,15.3,24.9,15.3c13.9,0,27.8-12.4,27.8-27.8v-6.3
		c-16.5,15.3-42.3,14.4-57.7-2.1c-15.3-16.5-14.4-42.3,2.1-57.7c15.7-14.5,39.9-14.5,55.5,0L261.1,298.6z M261.1,337.8
		c0-15.3-12.4-27.8-27.8-27.8c-15.3,0-27.8,12.4-27.8,27.8c0,15.3,12.4,27.8,27.8,27.8h0C248.6,365.5,261.1,353.1,261.1,337.8
		 M59.3,310c10.8,0,20.6,6.3,25.1,16h13.9c-6.5-21.6-29.3-33.8-50.8-27.3s-33.8,29.3-27.3,50.8c6.5,21.6,29.3,33.8,50.8,27.3
		c13.1-3.9,23.4-14.2,27.3-27.3H84.5c-6.5,13.9-23,19.9-36.9,13.4s-19.9-23-13.4-36.9C38.7,316.2,48.5,309.9,59.3,310 M186.2,337.7
		c0,22.5-18.3,40.8-40.8,40.8c-22.5,0-40.8-18.3-40.8-40.8c0-22.5,18.3-40.8,40.8-40.8c0,0,0,0,0,0
		C167.9,296.9,186.2,315.2,186.2,337.7L186.2,337.7 M173.1,337.7c0-15.3-12.4-27.8-27.8-27.8s-27.8,12.4-27.8,27.8
		s12.4,27.8,27.8,27.8c0,0,0,0,0,0C160.7,365.5,173.1,353.1,173.1,337.7 M599.6,296.9c-8.3,0-16.4,2.9-22.8,8.2v-6.4h-13v78.2h13
		v-44.1c0-12.6,10.2-22.8,22.8-22.8c12.6,0,22.8,10.2,22.8,22.8v44.1h13v-44.1C635.4,313,619.4,296.9,599.6,296.9 M537.7,298.7h13
		v78.2h-13v-9.2c-16.5,15.3-42.3,14.4-57.7-2.1s-14.4-42.3,2.1-57.7c7.5-7,17.5-10.9,27.7-10.9c10.3,0,20.2,3.9,27.8,10.9V298.7z
		 M537.7,337.7c0-15.3-12.4-27.8-27.8-27.8s-27.8,12.4-27.8,27.8s12.4,27.8,27.8,27.8h0C525.2,365.5,537.7,353.1,537.7,337.7
		 M679,311.7v-13h-19.6v-21.3h-13v73.5c0,14.4,11.7,26.1,26.1,26.1c0,0,0,0,0,0h6.5v-13h-6.5c-7.2,0-13-5.8-13-13v-39.1L679,311.7z
		 M377.2,270.5c-4.8,0-8.7,3.9-8.7,8.7s3.9,8.7,8.7,8.7c4.8,0,8.7-3.9,8.7-8.7C385.9,274.3,382,270.5,377.2,270.5
		C377.2,270.5,377.2,270.5,377.2,270.5 M462.1,298.7h-65.2v13h48.4l-48.3,52.2v13h65.2v-13h-48.4l48.3-52.2L462.1,298.7z"/>
	<path id="path42" class="st1" d="M1547.2,210.1c-29.3-0.1-53.2,23.5-53.4,52.8s23.5,53.2,52.8,53.4c29.3,0.1,53.2-23.5,53.4-52.8
		c0-0.1,0-0.2,0-0.3C1599.9,234,1576.4,210.4,1547.2,210.1 M1547.2,292.2c-15.9,0.3-29-12.4-29.3-28.3c-0.3-15.9,12.4-29,28.3-29.3
		c0.3,0,0.7,0,1,0c15.8,0,28.6,12.8,28.7,28.7C1575.8,279.1,1563,292.2,1547.2,292.2"/>
	<path id="path44" class="st1" d="M1352.6,209c-11.3,0-22.6,2.1-33.1,6.3c-7.8-4.5-15.2-6.3-26-6.3c-14.3-0.1-28.5,2.2-42.1,6.9
		l-2.7,0.9v97.6h26.6v-80c4.8-1.7,9.8-2.5,14.9-2.4c13.1,0,17,4.2,17,17.9v64.5h26.9V248c0-6-0.3-9.9-1.2-13.4
		c5.4-1.8,9.5-2.7,14.3-2.7c12.6,0,18.2,5.7,18.2,17.9v64.5h26.6v-66.6c0-13.1-2.1-20.9-8.1-27.5
		C1377.3,213.1,1366.3,208.9,1352.6,209"/>
	<path id="path46" class="st1" d="M1459.1,293.3c-17.7,0-27.8-11-27.8-30.2c0-19.7,10.2-30.9,28.1-30.9c7.3-0.2,14.4,2.1,20.1,6.6
		l11.2-19.3c-4.7-3.7-10-6.4-15.8-7.9c-6.9-2.1-17-2.4-17-2.4c-31.9,0-53.4,22.2-53.4,55.1c0,31.7,20.3,52.1,51.9,52.1
		c0,0,21.1,0.9,35.3-12.2l-13.2-17C1471.3,291.7,1466.4,293.3,1459.1,293.3"/>
	<path id="path48" class="st1" d="M1112.8,209.8c-37.9,0-55.5,16.7-55.5,52.2v52.2h27.2v-52.5c0-17.9,10.2-28.9,26-28.9
		c5.1,0,10.3,0.7,15.2,2.1l6.3-23.6C1125.6,210.4,1119.2,209.9,1112.8,209.8"/>
	<path id="path50" class="st1" d="M1233.2,259.1v55.2h-36.4c-25.1,0-36.1-1.8-49.2-10.5c-11.4-7.8-17.6-22.4-17.6-41.5
		c0-26.3,17.3-52.8,55.5-52.8C1216.5,209.5,1233.3,226.9,1233.2,259.1 M1206.7,262.1c0-20-7.8-29.8-23.3-29.8
		c-15.8,0-26,11.6-26,29.2c0,21.2,10.1,30.5,32.8,30.5h16.4L1206.7,262.1z"/>
	<path id="path52" class="st1" d="M1042.5,259.1v55.2h-36.1c-25.1,0-36.1-1.8-49.2-10.5c-11.3-7.8-17.6-22.4-17.6-41.5
		c0-26.3,17.3-52.8,55.5-52.8C1026.1,209.5,1042.6,226.9,1042.5,259.1 M1015.1,262.1c0-20.3-7.2-29.8-23-29.8s-26,11.6-26,29.2
		c0,21.2,10.2,30.5,32.8,30.5h16.1V262.1z"/>
</g>
</svg>
