<?xml version="1.0" encoding="utf-8"?>
<!-- Generator: Adobe Illustrator 24.2.3, SVG Export Plug-In . SVG Version: 6.00 Build 0)  -->
<svg version="1.1" id="Layer_1" xmlns="http://www.w3.org/2000/svg" xmlns:xlink="http://www.w3.org/1999/xlink" x="0px" y="0px"
	 viewBox="0 0 549 320" style="enable-background:new 0 0 549 320;" xml:space="preserve">
<style type="text/css">
	.st0{fill:#231F20;}
	.st1{fill:#107FCB;}
	.st2{fill:#FFFFFF;}
	.st3{fill:#EE2722;}
	.st4{fill:#005CA9;}
</style>
<path class="st0" d="M495.7,192.4v-11.2h51.5v-8.4h-51.5v-10.4h51.5v-8.5H483v47h63.5l2.3-8.5H495.7z M129.4,192.4v-38.5h-12.7v47
	h57.6l3.6-8.5H129.4z M204.6,153.9v47h12.7v-15.7h41c15.2,0,21.1-6.4,21.1-15.8c0-9.1-6.4-15.4-20.5-15.4H204.6z M430.9,153.9v29
	l-52.5-29h-12.8v47h11.7v-34.7l65.4,36v-48.3H430.9z M325.4,153.9h-12.7v47h12.7V153.9z M217.2,162.4h38.5c7.6,0,10,2.3,10,7.3
	c0,4.4-3.3,7-9.9,7h-38.6V162.4z M45.2,167.9L59,183.5H31.3L45.2,167.9z M74.5,200.9h15l-44.3-48.4L0.8,200.9h15l7.9-8.9h42.9
	L74.5,200.9z"/>
<path class="st0" d="M213.5,244.2h-1.1v-1.6h1.1c0.6,0,0.9,0.3,0.9,0.8C214.4,243.9,214.1,244.2,213.5,244.2z M215.9,247.5l-1.4-2.4
	c0.8-0.2,1.3-0.8,1.3-1.7c0-1.2-0.8-1.8-2.3-1.8h-2.4v6h1.3v-2.2h0.8l1.3,2.2H215.9z"/>
<path class="st0" d="M209,244.5c0-2.9,1.9-4.6,4.5-4.6c2.6,0,4.4,1.7,4.4,4.6c0,2.8-1.9,4.5-4.4,4.5
	C210.9,249.1,209,247.4,209,244.5z M219,244.5c0-3.4-2.3-5.5-5.5-5.5c-3.2,0-5.5,2.1-5.5,5.5c0,3.4,2.3,5.5,5.5,5.5
	C216.6,250,219,247.9,219,244.5z"/>
<path class="st0" d="M145.8,240h22.4v3.8H150v10.7h15.7v3.8H150v13.5h-4.2V240z"/>
<path class="st0" d="M193.9,271.8h-4.2v-23h-4.4l8.6-9.8V271.8z"/>
<path class="st0" d="M246.5,243.8V240h26.7v3.9H262v27.9h-4.2v-27.9H246.5z"/>
<path class="st0" d="M287.7,240h22.4v3.8h-18.2v9.8h15.7v3.7h-15.7V268h18.2v3.8h-22.4V240z"/>
<path class="st0" d="M328.3,262.4h15.5l-7.8-15.3L328.3,262.4z M336.2,239l16.9,32.8h-4.6l-2.9-5.8h-19l-2.9,5.8h-4.2L336.2,239z"/>
<path class="st0" d="M382.9,270.8l-11.1-21.2l-5.8,22.2h-4.4l8.6-32.8l12.7,24l12.7-24l8.6,32.8h-4.3l-5.9-22.2L382.9,270.8z"/>
<path class="st1" d="M204.3,310.7l-7.7,8.4h56.3l7.7-8.4H204.3z"/>
<path class="st2" d="M260.7,310.7l-7.7,8.4h32.1l7.7-8.4H260.7z"/>
<path class="st3" d="M292.8,310.7l-7.7,8.4h56.3l7.7-8.4H292.8z"/>
<path class="st2" d="M196.4,29.6v42.9c-1.1-4.2-2.8-8.2-4.9-11.9c-4-6.9-9.5-12.7-16.1-16.9l-0.1-0.2L100.3,0v11.2L84,2.2v85.4
	c0,6.6,1.2,13.2,3.7,19.3c2.5,6.1,6.1,11.7,10.6,16.3c6.2,6.3,13.8,10.9,22.2,13.1c8.4,2.3,17.2,2.1,25.5-0.3
	c1.3,0.1,2.6,0.2,3.9,0.2c10.5,0,20.7-3.5,29.1-10.1c8.4-6.5,14.5-15.8,17.4-26.2v36h59.5c6.4,0,12.6-2,17.9-5.7
	c5.3-3.7,9.4-9,11.8-15.1l7,20.8h40l2.7-10.4l2.7,10.4h39.9l19.4-57.5h0.5v57.5h50.5V78.4H464V29.6H361.6l-4.1,12l-3.1-12h-38.3
	L313,41.5l-4.1-11.9L196.4,29.6z"/>
<path class="st2" d="M196.4,29.6v42.9c-1.1-4.2-2.8-8.2-4.9-11.9c-4-6.9-9.5-12.7-16.1-16.9l-0.1-0.2L100.3,0v11.2L84,2.2v85.4
	c0,6.6,1.2,13.2,3.7,19.3c2.5,6.1,6.1,11.7,10.6,16.3c6.2,6.3,13.8,10.9,22.2,13.1c8.4,2.3,17.2,2.1,25.5-0.3
	c1.3,0.1,2.6,0.2,3.9,0.2c10.5,0,20.7-3.5,29.1-10.1c8.4-6.5,14.5-15.8,17.4-26.2v36h59.5c6.4,0,12.6-2,17.9-5.7
	c5.3-3.7,9.4-9,11.8-15.1l7,20.8h40l2.7-10.4l2.7,10.4h39.9l19.4-57.5h0.5v57.5h50.5V78.4H464V29.6H361.6l-4.1,12l-3.1-12h-38.3
	L313,41.5l-4.1-11.9L196.4,29.6z"/>
<path class="st4" d="M453.7,40h-50.9l-9.2,27.3h14.6v57.5H438V67.4h15.7L453.7,40z M368.9,40l-12.7,37.4L346.5,40H324l-9.7,37.4
	L301.6,40h-30.3l28.6,84.8h24.7l10.6-41.3l10.6,41.3h24.7L399.3,40H368.9z M263,81.3c3.1-2,5.7-4.8,7.5-8.1c1.8-3.3,2.7-7,2.7-10.8
	c0-12.3-9.7-22.3-21.6-22.3h-44.7v84.8h49.1c12,0,21.7-10,21.7-22.4C277.6,92.7,271.5,84.3,263,81.3 M231.8,61.1h8
	c2.4,0,4.3,2.6,4.3,5.7c0,3.1-1.9,5.7-4.3,5.7h-8V61.1z M244,106.2h-12.1V93.8H244c2.7,0,4.8,2.8,4.8,6.2
	C248.8,103.5,246.7,106.2,244,106.2 M168.7,51.7L168.7,51.7L110.6,18v10.7l-16.3-8.9v67.6c0,21.9,17.2,39.6,38.4,39.6
	c4.2,0,8.3-0.7,12.3-2.1c1.6,0.2,3.3,0.3,4.9,0.3c21,0,38-17.6,38-39.3C188,71.2,180.2,58.5,168.7,51.7 M132.7,120.9
	c-18,0-32.5-15-32.5-33.6V29.6L118.3,40v47.3c0,8.2,6.4,14.9,14.4,14.9s14.4-6.7,14.4-14.9c0-3.2-1-6.4-2.9-8.9
	c-1.9-2.6-4.5-4.4-7.5-5.3V54c16.1,2.1,28.5,16.2,28.5,33.3C165.2,105.9,150.7,120.9,132.7,120.9"/>
</svg>
