<?xml version="1.0" encoding="UTF-8"?>
<!DOCTYPE svg PUBLIC "-//W3C//DTD SVG 1.1//EN" "http://www.w3.org/Graphics/SVG/1.1/DTD/svg11.dtd">
<!-- Creator: CorelDRAW X5 -->
<svg xmlns="http://www.w3.org/2000/svg" xml:space="preserve" width="135.467mm" height="44.5346mm" style="shape-rendering:geometricPrecision; text-rendering:geometricPrecision; image-rendering:optimizeQuality; fill-rule:evenodd; clip-rule:evenodd"
viewBox="0 0 13547 4453"
 xmlns:xlink="http://www.w3.org/1999/xlink"
 xmlns:svg="http://www.w3.org/2000/svg">
 <defs>
  <style type="text/css">
   <![CDATA[
    .fil1 {fill:black}
    .fil0 {fill:#E6002D}
   ]]>
  </style>
 </defs>
 <g id="Layer_x0020_1">
  <metadata id="CorelCorpID_0Corel-Layer"/>
 </g>
 <g id="Layer_x0020_1_0">
  <metadata id="CorelCorpID_1Corel-Layer"/>
  <g id="_404620872">
   <path class="fil0" d="M6400 2405l0 -950 1372 0 0 950 338 0 0 -2050 -338 0 0 808 -1372 0 0 -808 -339 0 0 2050 339 0zm2963 -362l0 0c-109,72 -256,112 -415,112 -202,0 -337,-87 -337,-217 0,-133 93,-197 331,-226l327 -39c130,-16 213,-32 266,-68l0 153c0,111 -61,212 -171,285zm195 145l0 0c34,161 150,184 271,184 76,0 164,-6 229,-17l14 -2 0 -229 -19 4c-27,5 -67,11 -98,11 -81,0 -114,-32 -114,-111l0 -792c0,-378 -448,-434 -715,-434 -488,0 -733,167 -769,525l-2 17 306 0 1 -15c7,-186 155,-277 453,-277 295,0 421,67 421,226 0,115 -80,144 -249,161l-330 34c-479,50 -666,183 -666,473 0,138 62,459 633,459 215,0 497,-68 636,-218zm1848 -430l0 0c0,111 -61,212 -171,285 -109,72 -256,112 -415,112 -202,0 -337,-87 -337,-217 0,-133 93,-197 331,-226l327 -39c130,-16 213,-32 266,-68l0 153zm517 370l0 0c-32,6 -65,10 -98,11 -81,0 -114,-32 -114,-111l0 -792c0,-378 -448,-434 -715,-434 -488,0 -733,167 -769,525l-2 17 306 0 1 -15c7,-186 155,-277 453,-277 295,0 421,67 421,226 0,115 -80,144 -249,161l-330 34c-479,50 -666,183 -666,473 0,138 62,459 633,459 215,0 497,-68 636,-218 34,161 150,184 271,184 76,0 164,-6 229,-17l14 -2 0 -229 -19 4zm109 -267l0 0 1 17c25,351 283,529 764,529 232,0 415,-42 543,-125 137,-89 207,-221 207,-393 0,-228 -167,-357 -525,-406l-396 -53c-193,-27 -230,-80 -230,-167 0,-72 39,-127 117,-163 63,-29 153,-46 253,-46 301,0 416,135 423,260l1 15 311 0 -2 -17c-29,-328 -288,-509 -731,-509 -206,0 -377,44 -497,129 -122,86 -186,211 -186,362 0,242 206,378 410,406l461 62c220,30 263,89 263,181 0,39 -14,96 -81,141 -73,49 -191,74 -350,74 -328,0 -445,-144 -445,-279l0 -16 -312 0z"/>
   <path class="fil1" d="M7041 2761l-980 0 0 1337 213 0 0 -583 731 0 0 -201 -731 0 0 -352 767 0 0 -201zm614 0l0 0 -1 15c-13,149 -138,224 -373,224l-62 0 0 175 391 0 0 922 232 0 -1 -1337c0,0 -188,0 -188,0zm1971 201l0 0 0 -201 -1159 0 0 201 471 0 0 1136 217 0 0 -1136 470 0zm454 329l0 0c159,0 274,84 304,220l-620 0c31,-133 155,-220 316,-220zm9 -173l0 0c-173,0 -316,50 -414,146 -89,86 -138,209 -138,344 0,298 217,490 553,490 176,0 397,-81 491,-310l9 -21 -221 0 -4 9c-64,134 -220,149 -284,149 -143,0 -301,-88 -323,-251l849 0 0 -37c0,-383 -267,-519 -517,-519zm1346 583l0 0c0,65 -35,124 -99,167 -64,43 -150,67 -243,67 -116,0 -194,-50 -194,-125 0,-78 52,-113 191,-131l194 -24c71,-9 119,-18 151,-36l0 82 0 0zm312 217l0 0c-19,4 -38,6 -57,6 -45,0 -62,-17 -62,-61l0 -478c0,-233 -270,-268 -430,-268 -293,0 -440,102 -462,322l-2 17 194 0 1 -15c4,-109 90,-162 263,-162 171,0 244,39 244,131 0,65 -44,81 -143,92l-196 21c-284,30 -401,115 -400,292 0,85 37,283 382,283 125,0 288,-39 374,-125 24,92 96,105 164,105 45,0 97,-4 137,-10l13 -2 0 -150 -19 4 0 0zm1801 -461l0 0c0,-268 -230,-340 -365,-340 -158,0 -276,51 -370,159 -71,-103 -181,-159 -314,-159 -89,0 -245,19 -347,142l0 -111 -207 0 0 949 208 0 0 -544c0,-80 29,-146 85,-192 51,-42 122,-65 201,-65 94,0 205,35 205,203l0 599 207 0 0 -571c0,-75 28,-134 84,-175 50,-36 121,-56 201,-56 94,0 205,35 205,203l0 599 207 0 0 -641z"/>
   <path class="fil0" d="M2788 3945c-462,0 -879,-186 -1186,-489l477 0c0,0 1371,-2442 1375,-2452 7,-10 3,-17 -6,-17l-559 0c-11,0 -13,3 -16,8 -3,5 -773,1360 -773,1360l-1005 0c-3,-43 -5,-86 -5,-129 0,-948 760,-1718 1699,-1718 478,0 912,201 1220,525 -134,229 -735,1262 -816,1412 -47,-110 -264,-88 -375,-90 -49,82 -276,517 -276,517 0,0 126,-2 239,0 110,2 123,118 79,191 -44,74 -223,392 -223,392l577 0c0,0 708,-1250 1110,-1961 108,229 164,479 163,732 0,948 -761,1718 -1699,1718l0 0zm-1574 -1072l0 0 587 0 -283 495c-128,-147 -230,-315 -304,-495l0 0zm1574 -2874l0 0c-1217,0 -2203,997 -2203,2228 0,44 1,86 3,129l-288 0c-16,0 -24,10 -31,21 -5,11 -260,466 -267,477 -5,11 -5,18 8,18l668 0c273,915 1114,1582 2109,1582 1217,0 2203,-997 2203,-2228 0,-1231 -986,-2228 -2203,-2228l0 0z"/>
   <path class="fil1" d="M7931 2845c4,0 7,0 10,0 3,0 6,-1 9,-2 2,-1 5,-3 6,-5 2,-3 2,-6 2,-10 0,-4 -1,-6 -2,-8 -1,-2 -3,-4 -5,-5 -2,-1 -5,-2 -7,-2 -3,0 -5,-1 -8,-1l-21 0 0 33 17 0 0 0zm7 -46l0 0c12,0 21,3 27,7 6,5 9,12 9,22 0,9 -3,16 -8,21 -6,5 -12,7 -19,8l30 46 -17 0 -28 -45 -17 0 0 45 -16 0 0 -104 40 0zm-73 82l0 0c14,37 56,56 93,42 10,-4 19,-10 27,-18 7,-7 12,-15 16,-24 4,-10 6,-20 6,-30 0,-11 -2,-21 -6,-30 -7,-18 -21,-32 -39,-40 -9,-4 -19,-6 -29,-6 -30,0 -57,18 -68,46 -4,10 -6,20 -6,30 0,11 2,21 6,30zm-15 -66l0 0c19,-45 71,-66 117,-47 33,14 55,46 55,82 0,24 -9,47 -26,64 -17,16 -39,26 -63,25 -24,0 -46,-9 -63,-25 -26,-26 -34,-65 -19,-99z"/>
  </g>
 </g>
</svg>
