<?xml version="1.0" encoding="utf-8"?>
<!-- Generator: Adobe Illustrator 24.2.3, SVG Export Plug-In . SVG Version: 6.00 Build 0)  -->
<svg version="1.1" id="Layer_1" xmlns="http://www.w3.org/2000/svg" xmlns:xlink="http://www.w3.org/1999/xlink" x="0px" y="0px"
	 viewBox="0 0 1600 754" style="enable-background:new 0 0 1600 754;" xml:space="preserve">
<style type="text/css">
	.st0{fill:url(#SVGID_1_);}
	.st1{fill:url(#SVGID_2_);}
	.st2{fill:#E2071F;}
	.st3{fill:#FFD800;}
	.st4{fill:url(#SVGID_3_);}
</style>
<g>
	
		<linearGradient id="SVGID_1_" gradientUnits="userSpaceOnUse" x1="1028.0856" y1="3300.4988" x2="1028.0856" y2="3415.0081" gradientTransform="matrix(1 0 0 1 -228.08 -2658.6304)">
		<stop  offset="0" style="stop-color:#8C8C8B"/>
		<stop  offset="0.5" style="stop-color:#9B9B9A"/>
		<stop  offset="0.66" style="stop-color:#868686"/>
		<stop  offset="1" style="stop-color:#4D4D4C"/>
	</linearGradient>
	<path class="st0" d="M132.7,677.8c0-20.8-14.6-33.3-39-33.6H0.2v109.7h15.9v-40h76c13.6,0,21.9,6.8,21.9,18.3v21.7h16.2v-21.5
		c0.5-11.2-6.2-21.5-16.6-25.7C125.5,702.2,133.2,690.6,132.7,677.8z M93.8,699.5H16.1v-41h77.7c21.2,0,22.9,15.6,22.9,20.5
		C116.7,683.9,115.1,699.5,93.8,699.5L93.8,699.5z M411.3,665.8c-8.1-16.4-17.3-23-31.9-23s-24.2,6.9-32,23l-41.7,85.3l-1.3,2.7h17
		l0.5-1.1l14.8-30.4H422l14.8,30.4l0.5,1.1h17.2l-1.3-2.7L411.3,665.8z M344,708l18.5-37.9c4.4-9,9.2-12.7,16.9-12.7
		s12.4,3.7,16.8,12.7l18.5,37.9H344z M620.5,699.1c0,37.1,16.1,54.5,50.8,54.8h85.9v-15.4h-84.7c-26.1,0-35.9-10.7-35.9-39.3
		s9.7-39.3,35.9-39.3h84.9v-15.4h-85.9C636.3,644.6,620.5,661.5,620.5,699.1z M937,753.9h15.8V644.2H937V753.9z M1264.4,738.1
		c-15.1,0-18.7-5.1-46.2-41.8l-1.2-1.6c-29.6-39.6-37.6-50.2-63.4-50.5h-12.8v109.7h15.6v-93.8c14.3,0,17.9,4.7,44.7,39.9l3.3,4.3
		c29.8,39,37.9,49.5,62.8,49.7h13.1V644.2h-15.7v93.9L1264.4,738.1z M1583.9,697.3v41h-69.5c-26.1,0-35.9-10.7-35.9-39.5
		c0-28.7,9.7-39.2,35.9-39.2h84.4v-15.4h-85.7c-34.6,0.3-50.7,17.7-50.7,54.7c0,37,16.1,54.6,50.8,55h86.5v-56.4h-15.9L1583.9,697.3
		z"/>
	
		<linearGradient id="SVGID_2_" gradientUnits="userSpaceOnUse" x1="326.0365" y1="3357.1453" x2="2013.5088" y2="3357.1453" gradientTransform="matrix(0.95 0 0 0.95 -307.0458 -2604.6484)">
		<stop  offset="0" style="stop-color:#B2B2B2"/>
		<stop  offset="0.5" style="stop-color:#575756"/>
		<stop  offset="0.64" style="stop-color:#6E6E6D"/>
		<stop  offset="0.93" style="stop-color:#A5A5A4"/>
		<stop  offset="1" style="stop-color:#B2B2B2"/>
	</linearGradient>
	<path class="st1" d="M410.2,576.5h-16.3c-179.2,0-394,3.8-394,6.7s177.3,9.7,394,9.7h812c179.2,0,394-3.8,394-6.7
		s-177.3-9.7-394-9.7H410.2z"/>
	<path class="st2" d="M689.3,378.1v67.6c-0.8,11.8-11.1,20.8-22.9,20c-10.7-0.7-19.2-9.3-20-20v-67.6h-37.2v74.9
		c0,25.3,26.2,45.9,58.5,45.9c32.3,0,58.5-20.5,58.5-45.9v-74.8L689.3,378.1z M810.4,297.7v196.9h37.5V297.7H810.4z M747,494.6h37.5
		V297.7H747V494.6z M563.2,392.4c10.4-9.3,16.4-22.6,16.5-36.5c0-12.5-4.8-24.6-13.5-33.7c-8.9-9.9-24.8-15.4-46.2-15.4H456v187.9
		h82.8c31.8-0.5,57.3-24.5,57.3-53.9C596.1,419.3,588.5,404,563.2,392.4z M531.8,462h-35.9V338.9h25c11.2,0.5,20,9.8,19.9,21
		c0,11-8.9,19.9-19.9,19.9l0,0h-13v33.8h23.9c13.3,0.6,23.6,11.9,23,25.3c-0.6,12.5-10.6,22.5-23,23V462z"/>
	<path class="st2" d="M125.4,362.2c-0.3-30.9-25.5-55.7-56.4-55.5H0.2v187.9h39.9V339h20.5c13.8-0.5,25.4,10.3,25.9,24.1
		c0,0.2,0,0.3,0,0.5C86,377.7,74.1,388.7,60,388.1h-9.3v44.9l39.9,61.6h47l-55.1-78.5C107.5,410.2,125.2,387.9,125.4,362.2z
		 M195.1,373.2c-34.7,1-62,29.9-61,64.6c1,33.3,27.7,60,61,61c26.2,0,46.5-11.9,57-30.4l-30.5-14.1c-4.4,8.9-13.6,14.5-23.5,14.3
		c-13.5,0.6-25-9.8-25.6-23.3c0,0,0,0,0-0.1v-1.5h82.6c0-2.6,0.4-5.1,0.4-7.9C256.3,395.5,229.4,373.2,195.1,373.2z M172.6,422.4
		c0-12.7,10.3-22.9,22.9-22.9s22.9,10.3,22.9,22.9H172.6z M404.7,494.6v-197h-37.4v93.2c-10-10.1-23.5-15.7-37.7-15.8
		c-30.8,0-56.1,27.5-56.1,61.6s25.1,61.6,56.1,61.6c14.3-0.1,27.9-6,37.9-16.3V495L404.7,494.6z M340.2,465.8
		c-16.6,1.5-31.3-10.8-32.8-27.4c-1.5-16.6,10.8-31.3,27.4-32.8c16.6-1.5,31.3,10.8,32.8,27.4c0.1,0.9,0.1,1.8,0.1,2.7
		C368.4,451.6,356.1,465,340.2,465.8L340.2,465.8z"/>
	<circle class="st3" cx="1262" cy="392.4" r="128.2"/>
	<path class="st3" d="M1598.1,478.2L1598.1,478.2c-0.2-0.3-0.3-0.7-0.5-1.1c0-0.7,0-1.5-0.4-2.3l0,0c-0.2-2.1-0.6-4.2-1.4-6.2
		c-1.5-3.2-4.4-5.5-7.8-6.2c-0.2-1.1-0.6-2.1-1.2-3c-2.1-2.7-4.7-5.1-7.7-6.8l-1.7-1.2l-0.7-0.5c-1.6-1.2-3.5-1.9-5.5-1.9
		c-3.6,0.2-6.9,2-9,4.8c-0.4-1-1-3.2-1.3-4.5s-0.9-3.4-1.4-4.7l0,0v-0.6c-1.1-4.5-4.7-7.9-9.1-8.9c-1.6-0.2-3.2-0.4-4.8-0.4
		c-1.6,0.1-3.1-0.2-4.6-0.8c0-0.3,0-0.7,0.5-1.3c0.5-1.2,0.9-2.5,1.3-3.7c1.6-5.2,2-10.6,1.1-16c1.5,0.2,3.1,0.3,4.7,0.4
		c5.2,0,10.3-1.1,15-3.1l0,0c10.6-4.9,17.5-15.5,17.6-27.2v-1c-1-10.9-7.1-21.3-18.6-31.5c3.2-0.7,6.3-2,9-3.8
		c8.6-6.2,12.5-17,9.8-27.3v-0.8c-0.4-3.7-3.4-6.5-7.1-6.5c-1.8,0-3.5,0.7-4.8,1.9l-0.9,0.8c-0.6,0.7-1.4,1.3-2.1,1.8
		c-2.2,1.1-4.6,1.8-7.1,2.2c-2.3,0.4-4.5,1-6.7,1.7c-10.3,3.5-16.7,9.1-19.2,16.4c-1.5,5-0.8,10.4,1.8,14.8v0.4
		c3.3,4.8,7.1,9.1,11.4,12.9c5.5,5.1,10.7,10.3,11.8,16.3c0,1.1,0.5,3.1-3.1,5.8c-1.8,0.9-3.7,1.3-5.7,1.2c-3.4,0-6.8-0.9-9.8-2.5
		l0,0c-4.7-2.5-9.2-5.2-13.5-8.3c-7.1-5.2-14.8-9.4-23-12.5c-3.8-1.5-7.8-2.6-11.9-3.3c-4.4-0.5-8.5-2-12.3-4.3l-0.5-0.3
		c-1.4-0.9-2.8-1.9-4.1-2.9c-4.3-3.5-9.2-6.2-14.4-7.8c-1.9-0.6-3.9-1-5.9-1.2c-1.5-0.1-2.9-0.4-4.3-1.1l-2.8-2l0,0
		c-3.8-2.9-7.8-5.6-12.1-7.8c-7.2-3.3-14.7-5.7-22.5-7.1c-0.4,0-1.5-1.4-2.3-2.3c-1.3-1.8-2.9-3.4-4.7-4.7c-6-5.5-13.8-8.7-22-9.1
		h-2.4c-5,0.7-9.7,3-13.2,6.6c-6.7,5.9-14.1,11.2-21.1,16.3c-11.6,7.9-22.4,16.9-32.2,26.9c-10.3,10.7-14.2,24.1-17.5,35.9
		c-0.5,1.7-1,3.4-1.5,5.1c-0.9,3.2-1.7,6.6-2.5,9.8c-4.1,16.4-7.9,31.8-23.2,41.8c-2.4,1.5-3.8,4.4-3.5,7.2c0.4,2.9,2.3,5.4,5.1,6.4
		c1.9,0.6,3.9,0.9,5.8,0.9c0.1,1.7,0.7,3.3,1.8,4.5c1.7,1.9,4.1,2.9,6.6,2.9h0.3c9.5-0.6,18.3-5.1,24.5-12.3c2.5,2.5,5.6,4.3,9,5.1
		h1h1.1c3.5-0.6,7-0.9,10.6-0.8c3.1,1,6.3,2.2,9.4,3.3c3.1,1.2,5.1,1.8,7.4,2.7l1.2,0.4h1.1c5.2-0.7,9.8-3.9,12.2-8.6v-0.5v-0.5
		c0.2-0.5,0.4-1.1,0.6-1.6l0,0l0.4,1.4c0.7,3.2,2,6.3,3.9,9c1.9,2.2,4.7,3.5,7.6,3.5l0,0c1,0,2-0.1,2.9-0.3h0.2l0.3,0.4
		c1.6,1.9,3.7,3.3,6,4.2c2.8,0.9,5.6,1.7,8.4,2.4c3.5,0.8,6.9,1.8,10.3,3h0.4c2.6,1,5.3,1.5,8.1,1.5c3.5,0,6.9-1.3,9.5-3.6
		c3.1-2.4,5.2-5.8,6.2-9.6l2.1-0.5c4.7-1.5,9.3-10.3,9.3-10.3c0.3-0.6,0.7-1.1,1-1.7c1.1-1.6,1.7-3.5,1.7-5.5c0-4.5-3.6-8.1-8.1-8.2
		h-0.7c-0.4,0-9.2,0-11.7,0l0,0c-1,0-2,0.2-3,0.6l0,0c-0.7-0.8-1.4-2.7-2.4-3.2h0.4l2.5,0.3c1.6,0,3.2,0.3,4.8,0.3
		c5.2-0.1,10.3-0.7,15.4-1.8c4.3-0.5,8.7-0.6,13.1-0.4h1.6c2,0,3.9,0.1,5.8,0.4c2.2,0.2,4.5,0.4,6.8,0.4h2.5
		c2.2-0.1,4.4-0.5,6.5-1.1l0.8,4.1l0.3,1.4c1.1,7.4,5.4,14,11.7,18.1l1.3,0.9c3.7,2.8,8.1,4.6,12.7,5.1c2.1,0.2,4.3,0.2,6.4-0.3
		c8.2-1.6,16.6,0.4,23.3,5.4l0.6,0.4c0.7,0.5,1.5,1,2.1,1.6c1.8,1.7,3.9,3,6.2,4c1.8,0.7,3.7,1,5.6,1.1l0,0c2.6,0,5.2-0.7,7.4-2l0,0
		c0.3,0.3,0.5,0.7,0.7,1c1.3,1.9,2.7,3.6,4.4,5.1c3.2,2.8,7.4,4.3,11.6,4c1.5,0,2.9,0,4.2,0h1.4h2.3c0.9,0,1.5-0.3,1.8-0.3
		c1.2,0.9,2.7,1.4,4.2,1.4c0.7,0,1.3-0.1,1.9-0.3l7.3-2.4c2-0.6,3.7-2.1,4.6-4.1C1600.5,485.1,1600.1,481.3,1598.1,478.2z
		 M1366.9,441.8l-0.6-0.8c0-0.4-0.5-0.7-0.8-1.1c-1-1.3-1.8-2.8-2.5-4.3c2.2,0,4.5,0.5,7,0.6L1366.9,441.8z"/>
	<path class="st3" d="M1257.9,451.5l-3.8-1.9c-3.4-2.6-6.1-5.9-7.9-9.7c-1.1-1.8-2.3-3.8-3.5-5.5c-1.2-1.7-2.7-3.2-4.3-4.5l-0.8-0.7
		c-5-12.5-8.2-25.6-9.6-39c-0.7-4.8-2.3-9.5-4.7-13.7l0,0c-6.9-10.3-14.5-20.1-22.7-29.4c-0.6-0.6-1.2-1.2-1.7-1.7l-0.4-0.4
		l-27.2-22.6l-0.4-0.3c-3.7-2.8-7.8-5.1-12.3-6.6c-7.8-2.5-16.1-2.2-23.7,0.8h-0.5c-2.4,1.2-4.6,2.7-6.7,4c-2.9,2.1-6.1,3.8-9.4,5.1
		h-0.6c-2.8,1.2-5.7,2.2-8.7,3c-7.2,1.7-14,5.1-19.8,9.7l-3.7,3.4c-1.4,1.4-2.8,2.7-3.4,3.1h-1.2c-9.2-0.3-18.3,2.8-25.3,8.8h-0.3
		c-4,4.1-8.7,7.4-13.9,9.7c-2.3,0.7-4.8,1.1-7.2,1.2h-0.3c-3.4,0.2-6.7,0.7-10,1.5c-7.9,2.6-15.1,6.8-21.2,12.3
		c-2.7,2.1-4.4,3.4-5.1,3.8l-1.7,1.1c-5.6,4.1-12.3,6.6-19.2,7.2h-0.4c-3.8-0.4-7.1-2.8-8.5-6.3c-1.1-4.5,0.3-9.2,3.7-12.3
		c2.3-2.3,5.1-4.6,7.6-6.8c4.6-3.6,8.7-7.6,12.4-12.2c5.1-7.4,4.6-17.3-1.2-24.1c-5.2-4.6-11.5-7.6-18.4-8.8h-0.5h-1.1h-0.4
		l-2.1-0.4l-3.4-0.7c-2.4-0.9-4.6-2.1-6.6-3.7c-1.6-1.2-3.4-2.3-5.1-3.3l-5.1-2.7l-3.1,4.8c-2.4,3.7-3.5,8.1-3,12.5v0.4
		c1.6,9.3,7.6,17.2,16.1,21.2l0,0l0.9,0.4c1.8,0.7,3.6,1.1,5.5,1.3c-4.7,3.8-9,8-12.8,12.5c-6.9,8.8-8.6,20.6-4.6,31.1
		c4.6,10.9,14.7,18.5,26.5,19.9c1.7,0.3,3.4,0.4,5.1,0.4c3,0,6-0.4,9-1l0,0c0.1,3,0.3,6.1,0.7,9.1c0.8,3.7,2,7.2,3.5,10.7
		c0,0,0,0,0,0.3c-2.1,1.3-4.4,2.3-6.8,3.1c-1.7,0-3.7,0.3-5.1,0.4h-2.2c-2.1,0.2-4,1.1-5.5,2.6c-2.1,2.6-3.7,5.7-4.7,8.9
		c-0.6,1.6-1.3,3.3-1.9,4.7c-0.6,0.8-1.3,1.6-2.1,2.2c-1.1-1.7-2.4-3.1-4-4.3l0,0l0,0c-3.1-2.2-7.2-2.2-10.3,0l-1.4,0.9l-0.4,0.3
		c-2.3,1.5-4.5,3-6.6,4.8c-1.6,1.4-2.7,3.3-3.2,5.4c-0.6,0.1-1.1,0.2-1.6,0.4c-4.3,1.8-7.4,5.7-8.2,10.3c-0.1,1.7-0.3,3.4-0.6,5.1
		l-0.4,0.5c-2.8,3.1-2.8,7.9,0,11c3.7,2.3,7.9,3.8,12.2,4.4h0.4h1h0.5l1.4-0.6h1.9c1.2,0.2,2.4,0.4,3.6,0.7c2.4,0.6,4.9,0.9,7.4,1
		c2.7,0,5.4-0.6,7.8-1.9c3.4-1.9,6.2-4.8,7.9-8.3c0.5-0.8,0.9-1.5,1.3-2.2h0.7c1.4,0.4,2.7,0.7,4.2,0.8c5.8-0.1,11.3-2.1,15.8-5.8
		c1.2-0.9,2.3-1.9,3.3-2.9c1-1,2.1-1.9,3.3-2.8c1.4-0.5,2.8-0.7,4.2-0.6c3.1,0.1,6.1,0.5,9.1,1.1c5.8,1.5,11.9,0.8,17.2-1.9
		c2.6-1.5,5.1-2.8,7.3-4h0.4l3-1.6c4.8-3.2,8.5-7.7,10.8-13c1.1-2.2,2.8-6.3,3.2-7.4h1.7c3.2-0.1,6.4-0.4,9.5-1
		c2.1-0.3,4-0.6,5.4-0.7h2c3,0,7.2,0.4,10.3,0.7c3,0.4,4.5,0.6,8.1,0.7h1.5c1.1,0,2.4,0,3.8,0c3.1,0,6.2-0.7,9-2.1
		c0.7,0.7,1.8,2.3,2.6,2.9h-0.4c-2.2,0-4.4,0.9-5.9,2.5c-2.7-0.9-5.6-1.1-8.4-0.7c-3.5,0.3-6.9,0.8-10.3,1.6c-2.5,0.4-4.7,2-5.7,4.3
		c-1.1,2.5-1,5.5,0.4,7.9c1.8,3.3,3.6,6.3,5.5,9.5l0.8,1.4c1.6,2.6,4.5,4.1,7.5,3.9h1.8l0,0l0.4,0.6c1.5,3,3.5,5.7,6.1,7.9
		c3.3,2.7,7.4,4.2,11.6,4.1c1.9,0,3.7-0.3,5.5-0.8c8.3-2.4,16.3-5.5,24-9.2h1.9h1.5c4.3,0.1,8.4-1.5,11.5-4.4l0.4-0.4l0.3-0.4
		c1.4-2.1,2.7-4.2,4-6.3c0,0.3,0,0.5,0,0.8l0,0c2,4.9,6.8,8.1,12.1,7.8h0.3c4.8-0.4,9.5-1.5,14-3.4h0.3l1.7-0.6h0.4
		c4.2-1.4,8.7-1.6,13-0.7h0.7h0.7c5.1-0.5,10-2.6,13.8-6.1c6.7,7.2,16.2,11.2,26.1,11h1.2h1.7h0.5c3.3-0.7,5.7-3.4,6-6.8
		c0.1-0.6,0.1-1.3,0-1.9c0.6-0.1,1.2-0.2,1.8-0.3c3.2-0.6,5.6-3.2,6.1-6.4C1262.5,456.4,1260.9,453,1257.9,451.5z M1168.1,434.2
		l-0.9,0.8c-2.1,1.8-4,3.8-5.6,6.1c-1.2-2.1-2.1-3.5-2.7-5.1c2.7-0.4,5.3-1.2,7.8-2.3h1.4C1168.2,433.9,1168.2,434.1,1168.1,434.2
		L1168.1,434.2z"/>
	<path class="st2" d="M938.9,467.8h-0.3c-2.1,1-3.7,2.9-4.4,5.1c-0.5,6.7-0.7,7.4-2.5,9.4c-0.5,0.6-0.9,1.9-0.3,2.5
		c2.5,1.1,5.1,2,7.8,2.6l0,0c0.6,0,1.1-1.7,2.4-6.3c0.7-2.5,1.5-5.1,2.4-7.8c0,0,0-0.4-0.5-1.3S940.4,467.8,938.9,467.8z
		 M946.2,467.8c0.7,0.6,1.6,1,2.5,1c0.7,0,1.4-0.2,2.1-0.6c3.3-2.4,5.9-5.6,7.7-9.2c0.4-1.1-0.9-2.2-2.5-3.4l0,0
		c-0.9-0.6-2-0.6-2.9,0l-1.8,1.2c-2.1,1.3-4.1,2.8-6,4.4c-0.8,0.7-1.2,1.7-1.2,2.8c-0.1,0.6,0,1.2,0.4,1.7c0.6,0.7,1.2,1.4,1.8,2.1
		V467.8z M1255.1,457.2l-4.1-2c-4.4-3-7.9-7.1-10.3-12c-1-1.7-2.2-3.6-3.3-5.1c-1-1.2-2-2.3-3.2-3.3c-0.8-0.6-1.6-1.4-2.2-2.3
		c-5.4-13.4-8.8-27.4-10.3-41.7c-0.6-3.9-1.9-7.6-3.8-11c-6.7-9.9-14.1-19.4-22-28.4l-1.6-1.6l-0.4-0.4l-26.8-22.3
		c-3.2-2.5-6.9-4.5-10.8-5.8c-2.7-0.9-5.6-1.4-8.4-1.4c-3.7,0-7.3,0.7-10.7,2.1c-2.2,1.1-4.2,2.5-6.2,3.7c-3.4,2.4-7,4.3-10.8,5.7
		c-3,1.3-6.2,2.4-9.3,3.3c-6.3,1.5-12.3,4.3-17.3,8.4l-3.6,3.4c-4.6,4.4-5.1,4.8-8.9,4.8c-7.8-0.3-15.4,2.3-21.3,7.4
		c-4.6,4.7-10,8.5-16.1,11c-2.8,0.9-5.7,1.4-8.7,1.5c-3.2,0.2-6.3,0.6-9.4,1.4c-6.9,2.4-13.3,6.2-18.8,11.1
		c-1.8,1.4-4.4,3.4-5.5,4.2l-1.9,1.2c-6.6,4.7-14.3,7.5-22.4,8.1h-0.6c-6.4-0.5-12-4.7-14.2-10.7c-1.8-6.6,0.2-13.8,5.1-18.5
		c2.5-2.5,5.1-4.9,8-7.2c4.2-3.3,8-7,11.4-11.1c3.3-5,3-11.5-0.8-16.2c-4.5-3.6-9.8-6-15.4-6.9h-0.6h-1.2c-2-0.4-3.9-0.7-5.8-1.1
		c-4.7-2-9.1-4.6-13.2-7.6c-1.6,2.6-2.3,5.6-2.1,8.6c1.3,7.1,6,13.2,12.5,16.4l0.8,0.3c1.9,0.7,3.9,1,5.9,1h2.7
		c1.3,0,2.6,0.1,3.9,0.3c1.4,0.4,2.4,1.6,2.6,3c0,0.9-0.3,1.6-1.4,2.5l-3.1,2.6c-5.6,4.3-10.8,9.1-15.4,14.4
		c-5.4,7.1-6.7,16.6-3.4,24.9c3.8,8.8,12,14.8,21.5,15.9c1.5,0.2,2.9,0.3,4.4,0.4c4.7-0.2,9.3-0.9,13.8-2.3h0.4c0,0,0.6,0,0.7,1
		c0,1.9,0.3,4.2,0.3,6.4c0,3.5,0.3,6.8,0.6,8.3c0.8,3.2,1.8,6.4,3.2,9.4c0.5,1.1,0.8,1.9,0.9,2.3c0.4,1.4,0.1,2.8-0.9,3.8
		c-3.4,2.7-7.3,4.6-11.4,5.7c-2,0.3-4.2,0.4-5.7,0.5h-1.7c-0.7,0.1-1.4,0.4-1.9,0.9c-1.4,2.1-2.5,4.3-3.2,6.7
		c-0.7,1.9-1.5,3.8-2.3,5.4c-2.4,3.3-5.5,5.9-9.2,7.6l-2.6,1.5l0,0c-1.3,2.2-2.9,4.3-4.7,6.1c-1.5,1.2-3.3,1.8-5.1,1.8l0,0l0,0
		c-2.4,3.3-3.9,7.2-4.4,11.2c0,0.6-0.3,1.2-0.4,1.8v0.6h0.4c1.4,0,2.9,0.5,4.4,0.8c2,0.5,4,0.8,6.1,0.9c1.8,0,3.6-0.4,5.1-1.2
		c2.3-1.4,4.1-3.4,5.1-5.8c0.8-1.6,1.8-3,3-4.3c0.7-0.8,1.7-1.2,2.8-1.2c1.1,0.1,2.1,0.3,3.2,0.6c1,0.3,2,0.5,3,0.6
		c4.2-0.1,8.3-1.7,11.5-4.5c1-0.8,1.9-1.7,2.9-2.6c1.4-1.4,2.9-2.6,4.5-3.7c2.3-1,4.7-1.5,7.2-1.4c3.5,0.1,6.9,0.6,10.3,1.3
		c1.7,0.4,3.4,0.7,5.1,0.7c2.7,0,5.4-0.6,7.8-1.9l7.5-4.1l3.2-1.7c3.6-2.6,6.4-6.2,8.3-10.3c1.1-2.3,3.1-7.1,3.1-7.1l0,0l-4.5-3.4
		v0.3c-1.5,2.5-3.1,4.8-4.8,7.1c-7.8,10.7-20.5,12.1-30.8,12.1h-2.1c-11.5-0.5-22.7,4.2-30.5,12.7c-0.3,0.3-0.8,0.4-1.2,0.1
		c0,0,0,0-0.1-0.1c-0.1-0.3-0.1-0.6,0-0.9c0.2-0.7,0.4-1.5,0.8-2.1c8-11.3,21.5-13,32.5-13.2c6.6-0.2,13.1-1.7,19.1-4.6
		c6.3-3.7,11.1-9.6,13.3-16.6c1.1-3.9,1.9-7.9,2.5-11.9c0.4-3.2,1-6.3,1.7-9.4c0.1-0.4,0.5-0.7,0.9-0.7h0.3c0.4,0,1.2,0.4,1.2,1
		c-2,7.2-2,14.7,0,21.9c1.7,3.1,5.2,4.7,8.6,4.2c2.9-0.1,5.7-0.4,8.5-0.9c2.2-0.4,4.3-0.7,6.1-0.8h2.3c3.5,0.1,6.9,0.6,10.3,1.4
		c3,0.7,6,1.1,9,1.3h1.7c1.1,0,2.2,0,3.3,0c2.1,0.2,4.1-0.4,5.8-1.6c0.9-0.8,0.6-1.9,0-3.4v-0.3c-0.1-0.3-0.2-0.6-0.3-0.8
		c-0.6-1.9-1.5-4.8,0-6.2c0.2-0.2,0.5-0.3,0.8-0.3c0.3,0,0.6,0.2,0.7,0.5c0,0.6,0.3,1.1,0.5,1.7c0.5,2.4,1.5,4.7,2.8,6.8
		c3.8,4.6,8.6,8.3,14,10.9c4.8,2.9,8.1,7.8,8.9,13.4c0,2.8-2.8,4.8-4.8,6.1c-3.5,1.9-7.4,3-11.3,3.4c-1.4-0.1-2.8-0.7-3.9-1.5
		c-3.1-2.9-2.8-3.9-4.8-7.3c-1.1-1.9-2.3-3.7-3.6-5.4c-2-2.1-4.9-3.2-7.7-2.7c-3.2,0.3-6.5,0.9-9.6,1.6c-0.7,0.1-1.3,0.6-1.6,1.2
		c-0.4,0.7-0.4,1.6,0,2.3c1.8,3.2,3.6,6.2,5.4,9.3l0.8,1.4c0.5,0.7,1.4,1,2.2,0.9h3c1.2-0.2,2.5,0.3,3.3,1.2
		c0.6,0.9,1.1,1.8,1.5,2.7c1.1,2.3,2.7,4.4,4.6,6.1c2.1,1.8,4.8,2.7,7.6,2.7c1.3,0,2.5-0.2,3.7-0.6c8.4-2.4,16.6-5.6,24.4-9.5h2.6
		h1.7c2.7,0.1,5.4-0.7,7.4-2.5c2.4-3.5,4.6-7.3,6.5-11.1c1.7-2.9,1.7-6.5,0-9.5c-3.3-4.8-5.9-9.9-7.8-15.4l0,0l0,0l-1.7-0.6
		c-1.2-0.6-2.6-0.9-4-1l0,0c-1.7,0-2.9,0.6-3.3,1.5l0,0l9,17.8c0.8,1.5,1.1,3.2,0.9,4.9c-1.4,3.7-3.5,7-6.1,9.9
		c-0.2,0.2-0.5,0.3-0.8,0.3c0,0-0.6,0-0.3-1.1c1-3.9,1.6-7.8,1.6-11.9c-2.3-5.3-5-10.5-8.2-15.4l0,0c-1.4-1.8-2.2-3.9-2.3-6.2
		c0.1-1,0.8-1.8,1.7-2.1c1.3-0.4,2.6-0.7,3.9-1c3.2-0.7,6.5-1.4,7.7-3.2c3.7-5.8,6.2-12.3,7.2-19.1c0-0.4,0.3-1,0.8-1s0.6,0,0.7,0.8
		c1.3,7.6-0.6,15.4-5.1,21.6c-0.3,0.5-0.4,1.1-0.3,1.7c0.1,0.5,0.4,0.9,0.8,1.1c4.3,1,8.8,0.3,12.6-1.9c3.3-0.1,6.7-0.4,10-1.1
		l3-0.6c0.3,0.2,0.5,0.4,0.6,0.7c-2.6,3-4.4,6.7-5.1,10.7c-0.7,0.8-1.6,1.5-2.4,2.3c-3.2,2.3-5.5,5.7-6.3,9.5
		c-0.1,0.8,0.5,1.4,1.3,1.5c0,0,0.1,0,0.1,0c0.5,0,1-0.2,1.5-0.4c0.5-0.2,1-0.4,1.5-0.4c0.5,0.1,0.8,0.5,0.9,0.9l-3.3,5.1
		c-0.9,2-0.9,4.3,0,6.3c0.4,1.2,0,2.1,0.5,3.1c1.1,2.4,3.6,3.8,6.2,3.6c4.2-0.4,8.3-1.4,12.2-3l2.1-0.7c5.3-1.9,11-2.3,16.5-1.1
		c5.1-0.9,9.8-3.5,13.3-7.3c2,0.3,3.9,1.3,5.1,2.9c5.5,6.2,13.5,9.5,21.8,9.3h1.8c0.9,0,1.2-0.7,1.2-1.2s-0.5-1.4-1.5-1.8l-5.1-2.6
		c-4.1-2-7.5-5.4-9.5-9.5c-1.3-4-3.2-7.9-5.4-11.5c-0.4-0.6-0.7-1.1-1.1-1.7c-0.7-1-1.4-2-1.9-3.1l0,0c5.5,2.5,9.8,7,12.1,12.6
		c3.5,5.9,9.6,9.7,16.5,10.3c0.9,0,1.7-0.1,2.6-0.3c0.6-0.1,1.2-0.6,1.3-1.2c0.7-0.1,1.2-0.7,1.1-1.4
		C1256.5,457.6,1255.9,457.1,1255.1,457.2L1255.1,457.2L1255.1,457.2z M1158.7,377c0,0.5-0.5,0.9-0.8,0.9c-0.4,0-0.5,0-0.7-0.8
		c-0.7-4.8-2-9.5-3.9-14c-0.5-1-1.1-1.9-1.7-2.7c-1.2-1.6-2.3-3.1-1.1-5.1c0.5-0.6,1.3-1,2.2-0.9c0.4,0,0.9,0.1,1.3,0.3
		c1.9,1.2,3.3,3,4.1,5.1C1160.1,365.3,1160.3,371.3,1158.7,377z M1203.7,448.8c-0.1,1.1-0.5,2.1-1.2,2.9c-1.9,0.9-4,1.4-6.2,1.3
		c-1.8,0-2.4-0.3-2.8-0.9c-0.4-0.6,0.3-1.8,0.3-1.8c1.3-2.8,3.7-5,6.6-6c0.9-0.3,1.8-0.3,2.7,0
		C1204.4,444.9,1203.9,448.1,1203.7,448.8z M1216,420.6c-0.1,1-0.4,2-0.9,2.9c-0.3,0.8-1,1.3-1.8,1.3c-1.3,0-1.2-1.6-1.3-1.8
		c0-2.1-0.4-4.2-1-6.3c-0.9-2-5.1-7.7-7.9-7.5c-1.4,0.5-2.7,1.4-3.5,2.7c-1.5,1.9-1.5,2.2-1.9,2.5c-0.5,0.3-1.1,0-1.3-1
		c-0.4-1.4-0.4-2.9,0-4.3c0.4-1.5,1-2.9,1.7-4.3c0,0,1.3-3.1,1.8-3.8c0.7-1.2,1.9-1.9,3.2-1.9c1.5,0,2.9,0.7,3.8,1.9
		c0.8,1,1.5,2,2.1,3.1c0.8,1.3,1.7,2.5,2.8,3.5c1.8,2.1,3.2,4.7,3.9,7.4c0.4,1.8,0.5,3.7,0.3,5.5V420.6z M1109.9,456.6
		c0.8,1.2,1.4,2.5,2,3.9c1,2.3,1.9,4.2,2.9,4.5c0.5,0.1,1,0.1,1.4,0c2.9-0.2,5.6-1.3,7.9-3.1c1.3-1.1,0.9-1.8,0.3-2.8
		c-0.2-0.4-0.4-0.7-0.6-1.1c-0.5-1.2-1-2.4-1.3-3.6c-0.7-2.3-1.2-4.2-3.6-3.8c-3.5,0.5-7,0.7-10.5,0.7c0,0-1.2,0-1.6,0.8
		s0.5,1.8,1.5,2.7c0.6,0.5,1.1,1,1.6,1.6L1109.9,456.6z"/>
	<path class="st2" d="M1592.5,480.9c-0.4-0.7-0.7-1.4-0.9-2.2c0-1-0.4-2.1-0.5-3.1c-0.1-1.5-0.4-3.1-0.9-4.5
		c-0.7-1.6-2.3-2.6-4.1-2.6c-0.6,0-1.2,0.2-1.7,0.4c-2.5,1.3-4,2.6-3.6,5.4c1.2,3.7,2.2,7.4,3,11.2c0,0.6,0.5,2.7,1.5,2.7l0,0
		l7.2-2.4c0.3-0.1,0.6-0.3,0.8-0.7C1594,484.1,1593.2,482.5,1592.5,480.9z M1581.8,463c-1.7-2.1-3.7-3.8-6-5.1
		c-0.9-0.6-1.7-1.2-2.3-1.6l-0.4-0.3c-0.5-0.4-1-0.6-1.6-0.6c-2.1,0.3-4,1.7-4.8,3.7c0,1.4,1.9,3.8,4.5,6.9l0.6,0.7
		c1,1.4,2.5,2.3,4.2,2.5l0,0c1.5,0,2.9-0.6,4-1.7C1580.6,466.5,1582.7,464.2,1581.8,463z M1412.2,452.8c-1.3,0.2-2.6,0.2-4,0.3h-3.5
		c-0.7-0.1-1.4-0.1-2.2,0l0,0l0,0c-1.4,2.3-2.2,4.8-2.3,7.4c0.4,3,3.4,3.6,5.8,4.1c0.9,0.2,1.8,0.3,2.8,0.4c1.4,0.2,2.7-0.5,3.3-1.7
		c1.2-3,2.1-6.1,2.6-9.3c0.1-0.3,0.1-0.6,0-0.9c-0.5-0.4-1-0.6-1.6-0.6L1412.2,452.8z M1576.3,474.1L1576.3,474.1L1576.3,474.1
		c-4.2,0.3-6.8-3.1-9.3-6.4c-0.8-1-1.6-2-2.5-3c-1.2-1.4-2.6-2.7-4-3.9c-1.3-1-2.4-2.1-3.2-3.4c-0.8-1.9-1.4-3.9-1.8-5.9
		c-0.5-1.6-0.9-3.2-1.2-4.3c0,0,0-0.4,0-0.7c-0.8-2-1.7-4.5-4.3-5.1c-1.4-0.2-2.7-0.3-4.1-0.3c-3.6,0.3-7.1-1-9.5-3.5
		c-1.4-2.2-1.4-5.1,0-7.3c0.4-1,0.8-2,1-3c1.4-4.6,1.7-9.5,0.8-14.2c0-0.6-0.4-1.3-0.6-1.9c-0.7-1.6-1-3.4-0.8-5.1
		c0.3-0.6,0.9-1,1.6-0.9c0.7,0,1.5,0.2,2.2,0.4l1.4,0.4c6.6,1.7,13.5,1.2,19.8-1.6c8.4-3.8,13.9-12.1,14.1-21.3
		c-1-10-7.1-19.6-18.9-29.5l-0.9-0.7c-1.5-1.3-3.4-2.8-3.4-4.3c-0.1-1.4,3.6-2.3,5.9-2.8l1.4-0.4h0.6c3-0.6,5.8-1.7,8.4-3.3
		c6.3-5,9.1-13.2,7.1-21c0-0.2,0-0.3,0-0.5c0-0.7-0.4-1.6-1-1.6c-0.2,0-0.5,0.1-0.6,0.3l-0.8,0.7c-1,1-2.1,1.9-3.3,2.6
		c-2.8,1.5-5.8,2.4-9,2.9c-2,0.4-4,0.9-5.9,1.5c-6.8,1.5-12.5,6.2-15.4,12.6c-0.9,3.3-0.4,6.9,1.4,9.9c2.9,4.3,6.4,8.2,10.3,11.7
		c6,5.7,12.2,11.7,13.6,19.8c0.7,4.9-1.6,9.7-5.8,12.1c-2.8,1.6-5.9,2.3-9.1,2.3c-4.4,0-8.8-1.1-12.7-3.2c-4.9-2.6-9.6-5.5-14.2-8.6
		c-6.7-4.9-14-8.9-21.8-11.9c-3.5-1.4-7.1-2.4-10.8-3c-5.3-0.7-10.4-2.6-14.9-5.5c-1.5-1-3-2.1-4.4-3.1c-3.7-3.1-8-5.4-12.5-6.9
		c-1.7-0.5-3.4-0.9-5.1-1.1c-2.5-0.2-4.9-0.9-7-2.3l-3-2.2c-3.5-2.7-7.3-5.2-11.2-7.3c-6.7-3.1-13.8-5.3-21.1-6.6
		c-2.3-0.8-4.3-2.3-5.6-4.4c-1-1.4-2.2-2.6-3.6-3.6c-5-4.7-11.4-7.5-18.3-7.8h-1.9c-3.6,0.7-7,2.5-9.6,5.1
		c-6.9,6.1-14.4,11.5-21.6,16.7c-11.3,7.6-21.8,16.4-31.3,26.2c-9.3,9.6-12.7,21.7-16,33.3c-0.5,1.7-1,3.4-1.5,5.1
		c-0.9,3.2-1.7,6.5-2.5,9.6c-4.3,17.2-8.7,34.3-25.7,45.5c-0.7,0.4-0.9,1.3-0.4,2c0.2,0.3,0.4,0.5,0.7,0.6
		c5.4,1.5,11.2-0.3,14.8-4.6c4.5-5.1,6.7-10.3,12-15.9c0,0,0.8-0.7,1.3-0.6c0.5,0.1,0.5,0.3,0.4,1c-0.8,2.2-1.9,4.2-3.3,6.1
		c-1.5,1.9-2.6,4-3.4,6.3c-2.3,5-5.8,9.2-10.3,12.4c-0.4,0.2-0.7,0.5-1,0.9c-0.4,0.5-0.4,0.7-0.4,0.7c0,1.1,0.8,1.7,2.5,1.8l0,0
		c9.6,0,16.5-6.8,23.1-13.4c0.3-0.3,0.7-0.5,1.1-0.4c0.4-0.1,0.7-0.1,1.1,0c0.8,0.6,1.5,1.2,2.3,1.9c2,2.1,4.5,3.7,7.3,4.5l0,0
		c3.3-0.5,6.6-0.8,9.9-0.9h2.6c3.5,1.1,7,2.4,10.3,3.6c2.4,0.9,5.1,1.8,7.3,2.7l0,0c3.2,0,5.5-3.1,7.2-5.7c0.6-1.8,0.6-3.7,0-5.5
		c-0.2-1-0.4-2.1-0.4-3.2c0.7-0.2,1.5-0.2,2.3,0c0.8,0.1,1.5,0.1,2.3,0c1.1-0.2,1.7-1.3,1.5-2.3c0,0,0,0,0,0c-0.7-2.8-2-5.4-3.8-7.6
		c-1.4-1.9-2.6-4.1-3.4-6.3c-1.3-2.9-3.2-5.6-5.5-7.7c-2.6-2.3-4.5-5.3-5.6-8.6c0,0,0-0.7,0-1c0-0.3,0.9,0,0.9,0
		c1.1,0.8,2.3,1.8,3.4,2.7c3.3,3.3,7.5,5.6,12,6.7c4.5,0.6,9,0.8,13.5,0.6c1-0.1,1.7-1,1.6-2c0-0.1,0-0.2-0.1-0.3
		c-2-4-3.6-8.2-4.8-12.5c-2-6.2-2.3-12.8-0.9-19.1c0.1-0.5,0.6-0.9,1.1-0.9l0,0c0.7,0.3,1.2,1,1.3,1.7v0.9
		c0.6,9.2,1.2,17.9,6.9,25.3c1.5,2.1,3.5,3.8,5.7,4.9c1.5,0.7,2.9,1.7,4.1,2.9c1.2,1.7,1.4,3.8,0.6,5.6l-6.9,10.3
		c-1.7,2.2-3,4.7-3.8,7.3c-0.4,2.5-0.4,5,0,7.4v0.6c-0.2-0.1-0.4-0.3-0.5-0.6c-2.5-3.7-3.3-8.3-1.9-12.6c0.9-2.1,6.5-10.3,8.2-12.7
		c0.5-0.8,0.9-1.7,0.5-2.3c-1.8-1.2-3.7-2.1-5.8-2.5l0,0c-0.9,0.4-1.7,1.1-2.2,2l-0.4,0.6l-8.5,15.4v0.6c-0.6,1.5-0.8,3.1-0.5,4.7
		c0.5,2.2,1.1,4.4,1.7,6.6c0,0.5,0.3,1,0.4,1.5c0.5,2.3,1.4,4.6,2.7,6.6c0.7,0.9,1.8,1.3,2.9,1.3c0.6,0,1.3,0,1.9,0
		c1-0.2,2.1-0.2,3.1,0c1.2,0.4,2.3,1.2,3.1,2.3c0.8,1.1,2,2,3.3,2.5c2.6,0.9,5.1,1.6,8.1,2.3c3.6,0.9,7.2,2,10.7,3.2
		c2,0.7,4.1,1.1,6.2,1.2c2.1,0,4.1-0.8,5.6-2.3c2.4-1.9,3.9-4.6,4.4-7.6c0.6-2.9,1.5-3.1,3.6-3.2c0.8,0,1.5-0.1,2.2-0.4
		c2.4-1.9,4.4-4.4,5.7-7.2l1.3-2.3c0.4-0.6,0.6-1.2,0.7-1.9c0-1.1-0.9-2.1-2.1-2.1c0,0,0,0-0.1,0h-0.5c0,0-9.1,0-11.5,0
		c-3.7,0-5.1,3.8-6.7,6.9c-0.4,1.2-1,2.3-1.6,3.4c-1.1,1.8-3,2.9-5.1,2.8c-1-0.1-2-0.3-3-0.6c-5.1-1.2-10-2.5-12-7.3
		c-0.4-1.4-0.2-2.9,0.7-4c2.9-3.5,6.1-6.7,9.6-9.6c5.3-1.3,9.8-4.6,12.6-9.3c0.5-0.8,0.9-1.7,1.1-2.6c0.3-1.4,1-2.6,2.1-3.5
		c0.8-0.4,1.4-0.3,1.6,0.4c0.2,2.6-0.3,5.1-1.4,7.4l-0.6,1.6v0.4h0.4c1.4,0.1,2.8,0.1,4.2,0c4.9-0.1,9.7-0.7,14.5-1.7
		c4.7-1,9.5-1.6,14.3-1.7h1.6c2.2,0,4.3,0,6.4,0.4c1.7,0.2,3.4,0.4,5.1,0.5h2.1c5.3,0.3,10.3-2.8,12.3-7.7
		c1.3-6.6,1.2-13.3-0.4-19.9c0-0.3,0-0.5,0-0.8l0,0c0-0.4,0-0.7,0.5-0.9c0.5-0.2,1.2,0,1.5,0.8c2.2,6.4,3.7,13,4.5,19.7
		c1,5.7,3.3,11.2,6.6,16c4.6,6.8,12.3,10.8,20.5,10.6c2-0.1,3.9-0.3,5.9-0.6c0.9-0.1,1.8-0.1,2.8,0c10.6,0,20.7,4.9,27,13.4
		c0.1,0.1,0.1,0.3,0,0.4c-0.1,0.4-0.5,0.7-0.9,0.5c0,0-0.1,0-0.1,0l-0.9-0.7c-5.6-5.3-12.6-8.9-20.2-10.5c-1.5-0.3-2.9-0.4-4.4-0.4
		c-2.2,0-4.5,0.2-6.7,0.5c-2.1,0.3-4.2,0.4-6.3,0.5c-2.4,0-4.9-0.4-7.1-1.3c-8.7-3.9-15.4-11-18.8-19.9c-0.2-0.4-0.6-0.6-1-0.6
		c-0.3,0-0.5,0.1-0.8,0.3c-1,0.7-1.2,1-1.4,1.6c0.2,2.4,0.6,4.8,1.1,7.2c0.7,6.3,4.1,11.9,9.3,15.4c3.3,2.7,7.3,4.5,11.6,5.1
		c1.3,0.2,2.7,0.2,4,0c2.3-0.5,4.6-0.8,7-0.8c7.7,0.1,15.2,2.6,21.4,7.2c1.1,0.7,2.1,1.4,3,2.3c1.3,1.3,2.8,2.3,4.5,3
		c1.1,0.4,2.2,0.6,3.4,0.7c2,0,4-0.7,5.6-1.9c0.7-0.4,1.6-0.6,2.4-0.6c2.3,0,3.6,1.8,5.1,4.1c1,1.6,2.2,3,3.6,4.3
		c2,1.7,4.6,2.5,7.3,2.3h3.7c1.2,0,2.6,0,3.4,0h1.1v-0.3c-0.2-4.8-1.3-9.4-3.3-13.7L1576.3,474.1z M1335.2,452.5
		c-0.6,0.9-1.7,1.3-2.8,1.2c-1.1,0-2.2-0.3-3.1-0.9c-1.8-1.4-2.9-3.6-2.9-6c-0.1-0.7,0.2-1.5,0.8-1.9c0.4-0.2,0.8-0.3,1.2-0.3
		c2.2,0.2,4.2,1.2,5.7,2.8c0,0,1.9,2.8,0.8,4.8L1335.2,452.5z M1337.6,414.5c-0.5,0.9-1.5,1.3-2.5,0.9c-0.9-0.5-1.7-1.3-2.1-2.3
		c-0.6-1-1.1-1.9-2.5-1.8l0,0c-1.2,0.2-2.3,0.7-3.1,1.5c-0.5,0.4-2.5,1.8-3,2.3c-2.8,1.9-4.9,4.6-6.1,7.8c0,1.1,0,1.1-0.4,1.7
		c0,1.1-0.5,2.1-1.3,2.9h-0.5c-0.4,0-0.9-0.2-1.2-0.5c-0.4-0.2-0.6-0.6-0.6-1.1c-0.6-5.2,1.3-10.3,5.1-13.9c2.4-2.1,4.5-4.5,6.4-7.1
		c0.9-1.2,1.9-2.5,2.9-3.6s2,0,4.1,2.2c1.9,2.7,3.5,5.5,4.8,8.6c0.1,0.8-0.1,1.6-0.6,2.2L1337.6,414.5z M1382.9,351l-3.2,3
		c-3.9,3.3-7.3,7.1-10.3,11.2c-1.2,1.7-2.2,3.6-3,5.5c0,0-0.3,0.6-0.7,0.6c-0.2,0-0.4-0.1-0.6-0.3c-0.5-2.8-0.2-5.8,0.8-8.5
		c2.8-6.6,7.4-12.3,13.2-16.4c0.7-0.4,1.5-0.7,2.3-0.7c1.1-0.1,2,0.5,2.5,1.5c0.5,1.4-0.1,3-1.4,3.7L1382.9,351z"/>
	
		<linearGradient id="SVGID_3_" gradientUnits="userSpaceOnUse" x1="1028.214" y1="2658.6401" x2="1028.214" y2="2866.7285" gradientTransform="matrix(1 0 0 1 -228.08 -2658.6304)">
		<stop  offset="0" style="stop-color:#8C8C8B"/>
		<stop  offset="0.5" style="stop-color:#9B9B9A"/>
		<stop  offset="0.66" style="stop-color:#868686"/>
		<stop  offset="1" style="stop-color:#4D4D4C"/>
	</linearGradient>
	<path class="st4" d="M690.8,135.5h105.7l-55.8-90.1L638.1,208h-46.8L716.2,12.7c5.5-8,14.7-12.8,24.5-12.7
		c9.6-0.1,18.6,4.5,24.1,12.4L889.9,208h-46.7l-22-36.3h-107l-23.3-36.2 M1175.8,171.8V2.1h-39.7v186.3c0,5.1,2.1,10.1,5.8,13.6
		c3.8,3.9,9,6.1,14.4,6.1h180.5l23.5-36.4h-184.7 M520.2,141.4c38.5-1,68.8-33.1,67.8-71.5c-1-37-30.8-66.7-67.8-67.8H347v206h39.6
		V38.4h131.3c18.4,0,33.3,14.9,33.3,33.3s-14.9,33.3-33.3,33.3H406.2l118.3,103H582l-79.5-66.7h18.1 M103.5,208.1h119.7
		c56.9,0,103-46.1,103-103c0-56.9-46.1-103-103-103H103.3c-56.9,0-103,46.1-103,103c0,56.9,46.1,103,103,103l0,0 M220.4,171.8H106
		c-36.8,0-66.7-29.9-66.7-66.7S69.1,38.4,106,38.4h114.4c36.8,0,66.7,29.9,66.7,66.7S257.2,171.8,220.4,171.8 M972.6,208h122.3
		l23.3-36.3H975.3c-36.8,0-66.7-29.9-66.7-66.7c0-36.8,29.9-66.7,66.7-66.7l0,0h116.2L1114.9,2H972.7
		c-56.9-1.3-104.1,43.8-105.3,100.7c-1.3,56.9,43.8,104.1,100.7,105.3C969.6,208.1,971.2,208.1,972.6,208 M1457.1,171.8
		c-29.8,0-56.1-19.8-64.2-48.5h169.3l23.3-36.3h-192.6c8.1-28.7,34.3-48.5,64.2-48.5h116.3L1596.6,2h-142.1
		c-56.9,0-103,46.1-103,103c0,56.9,46.1,103,103,103h122.3l23.2-36.3L1457.1,171.8"/>
</g>
</svg>
